<?xml version="1.0" encoding="UTF-8" standalone="no"?>
<svg
   xmlns:dc="http://purl.org/dc/elements/1.1/"
   xmlns:cc="http://creativecommons.org/ns#"
   xmlns:rdf="http://www.w3.org/1999/02/22-rdf-syntax-ns#"
   xmlns:svg="http://www.w3.org/2000/svg"
   xmlns="http://www.w3.org/2000/svg"
   xmlns:sodipodi="http://sodipodi.sourceforge.net/DTD/sodipodi-0.dtd"
   xmlns:inkscape="http://www.inkscape.org/namespaces/inkscape"
   sodipodi:docname="logo-gobarber.svg"
   inkscape:version="1.0 (4035a4fb49, 2020-05-01)"
   id="svg8"
   version="1.1"
   viewBox="0 0 210 297"
   height="297mm"
   width="210mm">
  <defs
     id="defs2" />
  <sodipodi:namedview
     inkscape:window-maximized="0"
     inkscape:window-y="0"
     inkscape:window-x="0"
     inkscape:window-height="728"
     inkscape:window-width="1366"
     showgrid="false"
     inkscape:document-rotation="0"
     inkscape:current-layer="layer1"
     inkscape:document-units="mm"
     inkscape:cy="560"
     inkscape:cx="400"
     inkscape:zoom="0.35"
     inkscape:pageshadow="2"
     inkscape:pageopacity="0.0"
     borderopacity="1.0"
     bordercolor="#666666"
     pagecolor="#ffffff"
     id="base" />
  <metadata
     id="metadata5">
    <rdf:RDF>
      <cc:Work
         rdf:about="">
        <dc:format>image/svg+xml</dc:format>
        <dc:type
           rdf:resource="http://purl.org/dc/dcmitype/StillImage" />
        <dc:title></dc:title>
      </cc:Work>
    </rdf:RDF>
  </metadata>
  <g
     id="layer1"
     inkscape:groupmode="layer"
     inkscape:label="Layer 1">
    <rect
       y="2.2678571"
       x="-3.6898111e-08"
       height="296.33334"
       width="210.91072"
       id="rect12"
       style="fill:#333333;stroke-width:0.264583" />
    <g
       transform="matrix(-0.91575955,-0.0107132,-0.0046727,-1.0867169,211.87805,294.90297)"
       id="g200"
       style="fill:none">
      <path
         d="m 55.0285,124.761 v -0.869 h 3.5913 v 0.869 l -1.1193,0.192 v 3.442 h 4.848 v -3.442 l -1.1193,-0.192 v -0.869 h 3.5913 v 0.869 l -1.1193,0.192 v 7.849 l 1.1193,0.192 v 0.862 h -3.5913 v -0.862 l 1.1193,-0.192 v -3.346 h -4.848 v 3.346 l 1.1193,0.192 v 0.862 h -3.5913 v -0.862 l 1.1193,-0.192 v -7.849 z"
         fill="#999591"
         id="path90" />
      <path
         d="m 70.8083,133.856 c -0.0412,-0.2 -0.0732,-0.381 -0.0961,-0.54 -0.0229,-0.16 -0.0389,-0.32 -0.0481,-0.479 -0.2609,0.333 -0.5882,0.611 -0.9819,0.834 -0.3891,0.219 -0.8057,0.329 -1.2498,0.329 -0.7736,0 -1.3619,-0.187 -1.7647,-0.561 -0.4029,-0.379 -0.6043,-0.91 -0.6043,-1.595 0,-0.702 0.2838,-1.243 0.8515,-1.622 0.5722,-0.383 1.355,-0.575 2.3484,-0.575 h 1.394 v -0.862 c 0,-0.433 -0.1374,-0.776 -0.412,-1.026 -0.2747,-0.256 -0.657,-0.384 -1.1468,-0.384 -0.3387,0 -0.6386,0.044 -0.8995,0.13 -0.2564,0.087 -0.4647,0.206 -0.6249,0.356 l -0.1442,0.78 h -1.0438 v -1.437 c 0.3388,-0.269 0.7485,-0.483 1.2292,-0.643 0.4807,-0.164 1.0025,-0.246 1.5656,-0.246 0.8423,0 1.5244,0.214 2.0463,0.643 0.5219,0.429 0.7828,1.042 0.7828,1.841 v 3.565 c 0,0.096 0,0.19 0,0.281 0.0046,0.091 0.0115,0.182 0.0206,0.274 l 0.5494,0.075 v 0.862 z m -2.1767,-0.985 c 0.4486,0 0.8583,-0.107 1.2291,-0.322 0.3708,-0.214 0.6363,-0.472 0.7966,-0.773 v -1.218 h -1.4421 c -0.5539,0 -0.9933,0.127 -1.3184,0.383 -0.3204,0.255 -0.4806,0.566 -0.4806,0.931 0,0.324 0.1007,0.572 0.3021,0.746 0.2014,0.168 0.5058,0.253 0.9133,0.253 z"
         fill="#999591"
         id="path92" />
      <path
         d="m 73.7061,132.994 1.1193,-0.192 v -5.29 l -1.1193,-0.191 v -0.87 h 2.4721 v 6.351 l 1.1193,0.192 v 0.862 h -3.5914 z m 2.4721,-8.438 h -1.3528 v -1.376 h 1.3528 z"
         fill="#999591"
         id="path94" />
      <path
         d="m 78.3343,127.321 v -0.87 h 2.3279 l 0.1304,1.075 c 0.2106,-0.379 0.4693,-0.675 0.776,-0.89 0.3113,-0.214 0.6661,-0.321 1.0643,-0.321 0.1053,0 0.2129,0.009 0.3228,0.027 0.1144,0.014 0.2014,0.03 0.2609,0.048 l -0.1785,1.252 -0.7691,-0.041 c -0.3571,0 -0.6569,0.085 -0.8995,0.253 -0.2427,0.165 -0.4304,0.397 -0.5631,0.698 v 4.25 l 1.1193,0.192 v 0.862 h -3.5914 v -0.862 l 1.1193,-0.192 v -5.29 z"
         fill="#999591"
         id="path96" />
      <path
         d="m 87.3573,132.946 c 0.4486,0 0.8423,-0.137 1.1811,-0.411 0.3433,-0.278 0.515,-0.618 0.515,-1.019 h 1.2154 l 0.0137,0.041 c 0.0229,0.639 -0.2632,1.207 -0.8583,1.704 -0.5905,0.493 -1.2795,0.739 -2.0669,0.739 -1.0804,0 -1.9067,-0.351 -2.4789,-1.054 -0.5677,-0.703 -0.8515,-1.585 -0.8515,-2.648 v -0.288 c 0,-1.054 0.2861,-1.932 0.8584,-2.635 0.5722,-0.707 1.3962,-1.06 2.472,-1.06 0.5951,0 1.1284,0.098 1.6,0.294 0.476,0.196 0.8697,0.465 1.181,0.807 l 0.0618,1.643 h -1.078 l -0.2953,-1.164 c -0.1602,-0.155 -0.3662,-0.28 -0.618,-0.376 -0.2518,-0.096 -0.5356,-0.144 -0.8515,-0.144 -0.7096,0 -1.2177,0.256 -1.5244,0.767 -0.3022,0.506 -0.4532,1.129 -0.4532,1.868 v 0.288 c 0,0.757 0.151,1.389 0.4532,1.895 0.3021,0.502 0.8102,0.753 1.5244,0.753 z"
         fill="#999591"
         id="path98" />
      <path
         d="m 96.9159,132.761 c -0.2335,0.397 -0.5357,0.703 -0.9065,0.917 -0.3662,0.215 -0.7896,0.322 -1.2703,0.322 -0.8057,0 -1.4352,-0.258 -1.8884,-0.773 -0.4532,-0.516 -0.6798,-1.319 -0.6798,-2.409 v -3.306 l -0.8515,-0.191 v -0.87 h 2.2043 v 4.38 c 0,0.79 0.1167,1.333 0.3502,1.629 0.2334,0.297 0.5974,0.445 1.0918,0.445 0.4807,0 0.8767,-0.096 1.1879,-0.287 0.3159,-0.197 0.554,-0.473 0.7142,-0.829 v -4.277 l -0.9957,-0.191 v -0.87 h 2.3484 v 6.351 l 0.8515,0.192 v 0.862 h -2.0669 z"
         fill="#999591"
         id="path100" />
      <path
         d="m 102.505,124.665 v 1.786 h 1.408 v 1 h -1.408 v 4.496 c 0,0.347 0.071,0.591 0.213,0.732 0.147,0.142 0.339,0.212 0.577,0.212 0.119,0 0.252,-0.009 0.398,-0.027 0.151,-0.023 0.277,-0.046 0.378,-0.069 l 0.185,0.924 c -0.128,0.083 -0.315,0.149 -0.563,0.199 -0.247,0.055 -0.494,0.082 -0.741,0.082 -0.55,0 -0.987,-0.164 -1.312,-0.493 -0.325,-0.333 -0.487,-0.853 -0.487,-1.56 v -4.496 h -1.1746 v -1 h 1.1746 v -1.786 z"
         fill="#999591"
         id="path102" />
      <path
         d="m 110.979,128.778 h -1.016 l -0.22,-0.889 c -0.165,-0.156 -0.373,-0.279 -0.625,-0.37 -0.247,-0.096 -0.529,-0.144 -0.844,-0.144 -0.481,0 -0.838,0.105 -1.072,0.315 -0.233,0.21 -0.35,0.463 -0.35,0.76 0,0.292 0.103,0.522 0.309,0.691 0.206,0.169 0.625,0.319 1.257,0.452 0.938,0.2 1.636,0.474 2.094,0.821 0.458,0.342 0.687,0.803 0.687,1.382 0,0.657 -0.268,1.189 -0.804,1.595 -0.531,0.406 -1.227,0.609 -2.087,0.609 -0.563,0 -1.069,-0.064 -1.518,-0.192 -0.448,-0.132 -0.849,-0.321 -1.201,-0.568 l -0.007,-1.69 h 1.016 l 0.254,0.992 c 0.156,0.142 0.366,0.244 0.632,0.308 0.27,0.064 0.545,0.096 0.824,0.096 0.481,0 0.856,-0.096 1.126,-0.287 0.275,-0.197 0.412,-0.452 0.412,-0.767 0,-0.296 -0.114,-0.541 -0.343,-0.732 -0.225,-0.192 -0.653,-0.358 -1.284,-0.5 -0.902,-0.196 -1.582,-0.463 -2.04,-0.8 -0.458,-0.338 -0.687,-0.794 -0.687,-1.369 0,-0.602 0.257,-1.116 0.77,-1.54 0.517,-0.424 1.188,-0.636 2.012,-0.636 0.563,0 1.068,0.073 1.517,0.219 0.449,0.146 0.822,0.349 1.119,0.609 z"
         fill="#999591"
         id="path104" />
      <path
         d="m 115.861,131.174 c 0,-0.557 0.161,-1.043 0.481,-1.458 0.325,-0.42 0.808,-0.84 1.449,-1.259 -0.357,-0.452 -0.623,-0.854 -0.797,-1.205 -0.174,-0.356 -0.261,-0.721 -0.261,-1.095 0,-0.771 0.222,-1.364 0.666,-1.779 0.449,-0.42 1.065,-0.63 1.848,-0.63 0.723,0 1.311,0.208 1.764,0.623 0.454,0.415 0.68,0.915 0.68,1.499 0,0.447 -0.121,0.835 -0.364,1.163 -0.238,0.324 -0.593,0.657 -1.064,0.999 l -0.749,0.548 2.335,2.799 c 0.188,-0.297 0.334,-0.625 0.44,-0.986 0.105,-0.36 0.158,-0.741 0.158,-1.143 h 1.208 c 0,0.598 -0.089,1.152 -0.268,1.663 -0.178,0.511 -0.437,0.97 -0.776,1.376 l 1.271,1.533 -0.014,0.034 h -1.573 l -0.583,-0.698 c -0.366,0.274 -0.772,0.484 -1.216,0.63 -0.444,0.141 -0.904,0.212 -1.38,0.212 -0.993,0 -1.785,-0.262 -2.376,-0.787 -0.586,-0.525 -0.879,-1.205 -0.879,-2.039 z m 3.255,1.772 c 0.33,0 0.655,-0.055 0.975,-0.164 0.321,-0.114 0.623,-0.276 0.907,-0.486 l -2.479,-2.977 -0.275,0.198 c -0.416,0.311 -0.693,0.607 -0.831,0.89 -0.133,0.283 -0.199,0.538 -0.199,0.767 0,0.515 0.163,0.939 0.488,1.272 0.325,0.334 0.796,0.5 1.414,0.5 z m -1.03,-6.803 c 0,0.242 0.062,0.495 0.186,0.76 0.123,0.26 0.309,0.545 0.556,0.856 l 0.947,-0.651 c 0.261,-0.173 0.438,-0.36 0.529,-0.561 0.096,-0.205 0.144,-0.431 0.144,-0.677 0,-0.279 -0.112,-0.525 -0.336,-0.739 -0.22,-0.215 -0.508,-0.322 -0.865,-0.322 -0.371,0 -0.657,0.13 -0.859,0.39 -0.201,0.256 -0.302,0.57 -0.302,0.944 z"
         fill="#999591"
         id="path106" />
      <path
         d="m 135.439,126.835 h -1.024 l -0.254,-1.424 c -0.206,-0.173 -0.48,-0.317 -0.824,-0.431 -0.343,-0.114 -0.741,-0.171 -1.195,-0.171 -0.718,0 -1.27,0.153 -1.654,0.458 -0.385,0.302 -0.577,0.696 -0.577,1.184 0,0.434 0.194,0.797 0.583,1.089 0.394,0.287 1.028,0.54 1.903,0.759 1.052,0.26 1.851,0.644 2.396,1.15 0.549,0.506 0.824,1.134 0.824,1.882 0,0.803 -0.33,1.449 -0.989,1.937 -0.654,0.488 -1.513,0.732 -2.575,0.732 -0.769,0 -1.453,-0.125 -2.053,-0.376 -0.595,-0.251 -1.08,-0.58 -1.456,-0.986 v -1.855 h 1.017 l 0.26,1.431 c 0.261,0.214 0.573,0.39 0.934,0.527 0.362,0.137 0.795,0.205 1.298,0.205 0.682,0 1.22,-0.144 1.614,-0.431 0.398,-0.288 0.597,-0.678 0.597,-1.17 0,-0.457 -0.171,-0.838 -0.515,-1.143 -0.343,-0.311 -0.95,-0.571 -1.819,-0.78 -1.058,-0.251 -1.884,-0.621 -2.479,-1.109 -0.595,-0.488 -0.893,-1.102 -0.893,-1.841 0,-0.78 0.332,-1.428 0.996,-1.944 0.663,-0.52 1.526,-0.78 2.588,-0.78 0.701,0 1.337,0.121 1.909,0.363 0.577,0.237 1.04,0.527 1.388,0.869 z"
         fill="#999591"
         id="path108" />
      <path
         d="m 136.709,132.994 1.119,-0.192 v -8.561 l -1.119,-0.192 v -0.869 h 2.472 v 4.257 c 0.256,-0.356 0.57,-0.632 0.941,-0.828 0.37,-0.196 0.782,-0.294 1.236,-0.294 0.796,0 1.414,0.237 1.854,0.711 0.439,0.475 0.659,1.205 0.659,2.19 v 3.586 l 1.119,0.192 v 0.862 h -3.591 v -0.862 l 1.119,-0.192 v -3.599 c 0,-0.612 -0.133,-1.063 -0.398,-1.355 -0.261,-0.292 -0.652,-0.438 -1.174,-0.438 -0.371,0 -0.71,0.088 -1.017,0.266 -0.302,0.174 -0.551,0.411 -0.748,0.712 v 4.414 l 1.119,0.192 v 0.862 h -3.591 z"
         fill="#999591"
         id="path110" />
      <path
         d="m 150.82,133.856 c -0.041,-0.2 -0.073,-0.381 -0.096,-0.54 -0.023,-0.16 -0.039,-0.32 -0.048,-0.479 -0.261,0.333 -0.588,0.611 -0.982,0.834 -0.389,0.219 -0.806,0.329 -1.25,0.329 -0.773,0 -1.362,-0.187 -1.765,-0.561 -0.402,-0.379 -0.604,-0.91 -0.604,-1.595 0,-0.702 0.284,-1.243 0.852,-1.622 0.572,-0.383 1.355,-0.575 2.348,-0.575 h 1.394 v -0.862 c 0,-0.433 -0.137,-0.776 -0.412,-1.026 -0.275,-0.256 -0.657,-0.384 -1.147,-0.384 -0.338,0 -0.638,0.044 -0.899,0.13 -0.257,0.087 -0.465,0.206 -0.625,0.356 l -0.144,0.78 h -1.044 v -1.437 c 0.339,-0.269 0.748,-0.483 1.229,-0.643 0.481,-0.164 1.003,-0.246 1.566,-0.246 0.842,0 1.524,0.214 2.046,0.643 0.522,0.429 0.783,1.042 0.783,1.841 v 3.565 c 0,0.096 0,0.19 0,0.281 0.004,0.091 0.011,0.182 0.02,0.274 l 0.55,0.075 v 0.862 z m -2.177,-0.985 c 0.449,0 0.859,-0.107 1.229,-0.322 0.371,-0.214 0.637,-0.472 0.797,-0.773 v -1.218 h -1.442 c -0.554,0 -0.993,0.127 -1.318,0.383 -0.321,0.255 -0.481,0.566 -0.481,0.931 0,0.324 0.101,0.572 0.302,0.746 0.201,0.168 0.506,0.253 0.913,0.253 z"
         fill="#999591"
         id="path112" />
      <path
         d="m 156.156,127.321 -0.893,0.136 1.531,4.216 0.124,0.534 h 0.041 l 0.13,-0.534 1.484,-4.216 -0.9,-0.136 v -0.87 h 2.87 v 0.87 l -0.611,0.102 -2.492,6.433 h -1.023 l -2.521,-6.433 -0.611,-0.102 v -0.87 h 2.871 z"
         fill="#999591"
         id="path114" />
      <path
         d="m 164.76,134 c -1.035,0 -1.859,-0.342 -2.472,-1.027 -0.609,-0.688 -0.914,-1.58 -0.914,-2.675 v -0.302 c 0,-1.053 0.314,-1.929 0.941,-2.628 0.632,-0.702 1.378,-1.053 2.239,-1.053 0.998,0 1.753,0.301 2.266,0.903 0.517,0.602 0.776,1.405 0.776,2.409 v 0.842 h -4.821 l -0.02,0.034 c 0.013,0.712 0.194,1.298 0.542,1.759 0.348,0.456 0.836,0.684 1.463,0.684 0.457,0 0.858,-0.064 1.201,-0.192 0.348,-0.132 0.648,-0.312 0.9,-0.54 l 0.529,0.876 c -0.266,0.255 -0.618,0.472 -1.058,0.65 -0.435,0.173 -0.959,0.26 -1.572,0.26 z m -0.206,-6.625 c -0.454,0 -0.84,0.192 -1.161,0.575 -0.32,0.379 -0.517,0.856 -0.59,1.431 l 0.013,0.034 h 3.427 v -0.178 c 0,-0.529 -0.142,-0.972 -0.426,-1.328 -0.284,-0.356 -0.705,-0.534 -1.263,-0.534 z"
         fill="#999591"
         id="path116" />
      <path
         d="m 174.62,128.778 h -1.016 l -0.22,-0.889 c -0.164,-0.156 -0.373,-0.279 -0.625,-0.37 -0.247,-0.096 -0.528,-0.144 -0.844,-0.144 -0.481,0 -0.838,0.105 -1.071,0.315 -0.234,0.21 -0.351,0.463 -0.351,0.76 0,0.292 0.103,0.522 0.309,0.691 0.206,0.169 0.625,0.319 1.257,0.452 0.939,0.2 1.637,0.474 2.094,0.821 0.458,0.342 0.687,0.803 0.687,1.382 0,0.657 -0.268,1.189 -0.803,1.595 -0.531,0.406 -1.227,0.609 -2.088,0.609 -0.563,0 -1.069,-0.064 -1.517,-0.192 -0.449,-0.132 -0.85,-0.321 -1.202,-0.568 l -0.007,-1.69 h 1.016 l 0.254,0.992 c 0.156,0.142 0.367,0.244 0.632,0.308 0.27,0.064 0.545,0.096 0.824,0.096 0.481,0 0.856,-0.096 1.126,-0.287 0.275,-0.197 0.412,-0.452 0.412,-0.767 0,-0.296 -0.114,-0.541 -0.343,-0.732 -0.224,-0.192 -0.652,-0.358 -1.284,-0.5 -0.902,-0.196 -1.582,-0.463 -2.039,-0.8 -0.458,-0.338 -0.687,-0.794 -0.687,-1.369 0,-0.602 0.256,-1.116 0.769,-1.54 0.517,-0.424 1.188,-0.636 2.012,-0.636 0.563,0 1.069,0.073 1.517,0.219 0.449,0.146 0.822,0.349 1.12,0.609 z"
         fill="#999591"
         id="path118" />
      <path
         d="M 83.1411,9.10207 83.8827,8.99942 87.3779,0 h 1.1605 l 3.4334,8.99942 0.7347,0.10265 V 9.96438 H 89.8362 V 9.10207 L 90.5916,8.97204 89.9324,7.13794 H 85.929 l -0.6798,1.8341 0.7554,0.13003 v 0.86231 h -2.8635 z m 3.2068,-3.09333 h 3.1725 L 87.9685,1.73145 h -0.0412 z"
         fill="#999591"
         id="path120" />
      <path
         d="m 95.4601,3.42868 -0.8515,0.15056 0.9683,3.68873 0.1579,0.89652 h 0.0412 l 0.1923,-0.89652 1.4832,-4.70844 h 1.0849 l 1.4906,4.70844 0.212,0.99918 h 0.042 l 0.199,-0.99918 0.913,-3.68873 -0.865,-0.15056 V 2.55953 h 2.829 v 0.86915 l -0.646,0.09581 -1.874,6.43989 H 99.745 L 98.303,5.4544 97.994,4.20885 97.9528,4.2157 97.6644,5.4544 96.2498,9.96438 H 95.158 L 93.2834,3.52449 92.631,3.42868 V 2.55953 h 2.8291 z"
         fill="#999591"
         id="path122" />
      <path
         d="m 107.848,10.1081 c -1.035,0 -1.859,-0.34219 -2.472,-1.02656 -0.609,-0.68893 -0.914,-1.58088 -0.914,-2.67587 V 6.10455 c 0,-1.05393 0.314,-1.92991 0.941,-2.62797 0.632,-0.70261 1.378,-1.05392 2.239,-1.05392 0.998,0 1.753,0.30112 2.266,0.90336 0.517,0.60224 0.776,1.40523 0.776,2.40897 v 0.84177 h -4.821 l -0.02,0.03422 c 0.013,0.71174 0.194,1.29802 0.542,1.75882 0.348,0.45625 0.836,0.68437 1.463,0.68437 0.458,0 0.858,-0.06387 1.201,-0.19162 0.348,-0.13231 0.648,-0.31253 0.9,-0.54065 l 0.529,0.87599 c -0.266,0.25549 -0.618,0.47221 -1.058,0.65014 -0.435,0.17337 -0.959,0.26007 -1.572,0.26007 z m -0.206,-6.62467 c -0.453,0 -0.84,0.19162 -1.161,0.57486 -0.32,0.37869 -0.517,0.85546 -0.59,1.43033 l 0.014,0.03422 h 3.426 V 5.3449 c 0,-0.52924 -0.142,-0.9718 -0.426,-1.32767 -0.284,-0.35587 -0.705,-0.5338 -1.263,-0.5338 z"
         fill="#999591"
         id="path124" />
      <path
         d="m 117.708,4.88638 h -1.016 l -0.22,-0.88968 c -0.164,-0.15512 -0.373,-0.27831 -0.624,-0.36956 -0.248,-0.09581 -0.529,-0.14371 -0.845,-0.14371 -0.481,0 -0.838,0.10493 -1.071,0.3148 -0.234,0.20988 -0.35,0.46309 -0.35,0.75965 0,0.292 0.103,0.5224 0.309,0.69121 0.206,0.16881 0.624,0.31937 1.256,0.45168 0.939,0.20075 1.637,0.4745 2.095,0.82124 0.457,0.34219 0.686,0.80299 0.686,1.38242 0,0.657 -0.268,1.18852 -0.803,1.59458 -0.531,0.40605 -1.227,0.60909 -2.088,0.60909 -0.563,0 -1.069,-0.0639 -1.517,-0.19163 -0.449,-0.13231 -0.849,-0.32165 -1.202,-0.56802 l -0.007,-1.69039 h 1.016 l 0.255,0.99233 c 0.155,0.14144 0.366,0.24409 0.631,0.30797 0.27,0.06387 0.545,0.09581 0.824,0.09581 0.481,0 0.856,-0.09581 1.126,-0.28743 0.275,-0.19619 0.412,-0.45169 0.412,-0.76649 0,-0.29656 -0.114,-0.54065 -0.343,-0.73228 -0.224,-0.19162 -0.652,-0.35815 -1.284,-0.49959 -0.902,-0.19618 -1.582,-0.46308 -2.039,-0.8007 -0.458,-0.33762 -0.687,-0.79387 -0.687,-1.36874 0,-0.60224 0.256,-1.11551 0.769,-1.53982 0.517,-0.42431 1.188,-0.63646 2.012,-0.63646 0.563,0 1.069,0.073 1.518,0.21899 0.448,0.146 0.821,0.34903 1.119,0.60909 z"
         fill="#999591"
         id="path126" />
      <path
         d="m 119.199,6.19352 c 0,-1.09499 0.297,-1.99607 0.892,-2.70325 0.595,-0.71174 1.403,-1.06761 2.424,-1.06761 1.026,0 1.836,0.35359 2.431,1.06077 0.6,0.70717 0.9,1.61054 0.9,2.71009 v 0.15056 c 0,1.10411 -0.298,2.00747 -0.893,2.71009 -0.595,0.70262 -1.403,1.05393 -2.424,1.05393 -1.03,0 -1.843,-0.35131 -2.438,-1.05393 -0.595,-0.70718 -0.892,-1.61054 -0.892,-2.71009 z m 1.352,0.15056 c 0,0.78474 0.165,1.4326 0.495,1.9436 0.334,0.51099 0.828,0.76649 1.483,0.76649 0.641,0 1.128,-0.2555 1.463,-0.76649 0.334,-0.511 0.501,-1.15886 0.501,-1.9436 V 6.19352 c 0,-0.77562 -0.167,-1.4212 -0.501,-1.93676 -0.335,-0.51556 -0.827,-0.77333 -1.477,-0.77333 -0.65,0 -1.14,0.25777 -1.469,0.77333 -0.33,0.51556 -0.495,1.16114 -0.495,1.93676 z"
         fill="#999591"
         id="path128" />
      <path
         d="M 126.821,9.10207 127.94,8.91045 V 3.6203 L 126.821,3.42868 V 2.55953 h 2.334 l 0.09,0.96496 c 0.238,-0.35131 0.544,-0.62278 0.92,-0.8144 0.375,-0.19162 0.81,-0.28743 1.305,-0.28743 0.494,0 0.917,0.11406 1.27,0.34218 0.357,0.22812 0.625,0.57031 0.803,1.02655 0.234,-0.41974 0.543,-0.7528 0.927,-0.99917 0.385,-0.24638 0.833,-0.36956 1.346,-0.36956 0.76,0 1.36,0.26006 1.799,0.78018 0.44,0.51555 0.66,1.29345 0.66,2.33369 v 3.37392 l 1.119,0.19162 v 0.86231 h -3.598 V 9.10207 l 1.119,-0.19162 V 5.52284 c 0,-0.72999 -0.126,-1.24555 -0.378,-1.54667 -0.252,-0.30568 -0.625,-0.45853 -1.119,-0.45853 -0.472,0 -0.852,0.16653 -1.14,0.49959 -0.284,0.3285 -0.449,0.74368 -0.494,1.24555 v 3.64767 l 1.119,0.19162 v 0.86231 h -3.591 V 9.10207 l 1.119,-0.19162 V 5.52284 c 0,-0.69349 -0.131,-1.19992 -0.392,-1.5193 -0.256,-0.32393 -0.629,-0.4859 -1.119,-0.4859 -0.412,0 -0.751,0.08441 -1.016,0.25322 -0.266,0.16881 -0.469,0.40606 -0.611,0.71174 v 4.42785 l 1.119,0.19162 v 0.86231 h -3.591 z"
         fill="#999591"
         id="path130" />
      <path
         d="m 143.706,10.1081 c -1.034,0 -1.858,-0.34219 -2.472,-1.02656 -0.609,-0.68893 -0.913,-1.58088 -0.913,-2.67587 V 6.10455 c 0,-1.05393 0.313,-1.92991 0.941,-2.62797 0.631,-0.70261 1.378,-1.05392 2.238,-1.05392 0.998,0 1.753,0.30112 2.266,0.90336 0.517,0.60224 0.776,1.40523 0.776,2.40897 v 0.84177 h -4.82 l -0.021,0.03422 c 0.014,0.71174 0.195,1.29802 0.543,1.75882 0.347,0.45625 0.835,0.68437 1.462,0.68437 0.458,0 0.858,-0.06387 1.202,-0.19162 0.348,-0.13231 0.648,-0.31253 0.899,-0.54065 l 0.529,0.87599 c -0.265,0.25549 -0.618,0.47221 -1.057,0.65014 -0.435,0.17337 -0.959,0.26007 -1.573,0.26007 z M 143.5,3.48343 c -0.453,0 -0.84,0.19162 -1.16,0.57486 -0.321,0.37869 -0.518,0.85546 -0.591,1.43033 l 0.014,0.03422 h 3.426 V 5.3449 c 0,-0.52924 -0.142,-0.9718 -0.425,-1.32767 -0.284,-0.35587 -0.705,-0.5338 -1.264,-0.5338 z"
         fill="#999591"
         id="path132" />
      <rect
         x="0"
         y="106.073"
         width="230.033"
         height="2.00226"
         fill="#ff9000"
         id="rect134" />
      <rect
         x="0"
         y="25.9825"
         width="230.033"
         height="2.00226"
         fill="#ff9000"
         id="rect136" />
      <path
         d="m 53.2793,64.8023 v 14.0719 c 0,1.196 -0.2437,2.3359 -0.7313,3.4198 -0.45,1.0465 -1.0688,1.9622 -1.8563,2.7471 -0.7875,0.7849 -1.7251,1.4016 -2.8126,1.8501 -1.0501,0.4859 -2.1751,0.7288 -3.3752,0.7288 -1.2001,0 -2.3251,-0.2242 -3.3752,-0.6727 -1.05,-0.4485 -1.9688,-1.0465 -2.7564,-1.794 -0.7875,-0.7849 -1.425,-1.6819 -1.9125,-2.6911 -0.4501,-1.0465 -0.6938,-2.1678 -0.7313,-3.3638 V 68.7267 c -0.1125,-1.1586 -0.6376,-1.9996 -1.5751,-2.5228 0.525,-0.2617 1.05,-0.3925 1.5751,-0.3925 V 52.5805 c 0.0375,-1.196 0.2812,-2.3173 0.7313,-3.3638 0.4875,-1.0465 1.125,-1.9435 1.9125,-2.6911 0.7876,-0.7848 1.7064,-1.4015 2.7564,-1.85 1.0501,-0.4486 2.1751,-0.6728 3.3752,-0.6728 1.2001,0 2.3251,0.2429 3.3752,0.7288 1.0875,0.4485 2.0251,1.0652 2.8126,1.8501 0.7875,0.7849 1.4063,1.7193 1.8563,2.8032 0.4876,1.0465 0.7313,2.1864 0.7313,3.4198 0,0.6354 0.0563,1.1026 0.1688,1.4016 0.15,0.299 0.3,0.542 0.45,0.7288 0.15,0.1869 0.2813,0.3551 0.3938,0.5046 0.15,0.1495 0.225,0.3924 0.225,0.7288 h -2.9252 c -0.6,-0.0747 -0.9,-0.3924 -0.9,-0.953 0,0.5606 -0.3,0.8783 -0.9001,0.953 h -2.9813 c 0,-0.3364 0.0562,-0.5793 0.1687,-0.7288 0.15,-0.1495 0.3,-0.3177 0.45,-0.5046 0.15,-0.1868 0.2813,-0.4298 0.3938,-0.7288 0.15,-0.299 0.225,-0.7849 0.225,-1.4576 v -0.0561 c 0,-0.4859 -0.0187,-1.0652 -0.0562,-1.738 -0.0375,-0.7101 -0.1688,-1.3829 -0.3938,-2.0182 -0.225,-0.6354 -0.5813,-1.1774 -1.0688,-1.6259 -0.4875,-0.4485 -1.1626,-0.6727 -2.0251,-0.6727 -0.9,0 -1.5938,0.2429 -2.0814,0.7288 -0.45,0.4485 -0.7875,0.9904 -1.0125,1.6258 -0.225,0.6354 -0.3563,1.3082 -0.3938,2.0183 -0.0375,0.7101 -0.0562,1.3081 -0.0562,1.794 v 13.0067 c 0.525,0 1.05,0.1308 1.575,0.3925 -0.9375,0.5232 -1.4625,1.3642 -1.575,2.5228 v 10.1475 c 0,0.4859 0.0187,1.0839 0.0562,1.794 0.0375,0.6728 0.1688,1.3455 0.3938,2.0183 0.225,0.6354 0.5625,1.1773 1.0125,1.6258 0.4876,0.4485 1.1814,0.6728 2.0814,0.6728 0.9,0 1.5751,-0.2243 2.0251,-0.6728 0.4875,-0.4485 0.8438,-0.9904 1.0688,-1.6258 0.225,-0.6728 0.3563,-1.3455 0.3938,-2.0183 0.0375,-0.7101 0.0562,-1.3081 0.0562,-1.794 v -11.493 c -0.4125,0.0374 -0.7688,0.2056 -1.0688,0.5046 -0.2625,0.299 -0.3938,0.654 -0.3938,1.0652 v 0.056 c -0.0375,0.5607 -0.1875,1.0465 -0.45,1.4577 -0.225,0.3737 -0.5625,0.7101 -1.0125,1.0091 -0.45,0.2616 -1.1063,0.3925 -1.9689,0.3925 v -7.064 z M 38.7661,63.1764 c 0,-0.2242 -0.0187,-0.4485 -0.0562,-0.6727 0,-0.2243 0,-0.4298 0,-0.6167 v -1.2895 c -0.0375,-0.8222 -0.0563,-1.6071 -0.0563,-2.3546 0,-0.7475 -0.0187,-1.4577 -0.0562,-2.1304 -0.0375,-0.3364 -0.0563,-0.6354 -0.0563,-0.897 0,-0.2991 -0.0187,-0.5981 -0.0562,-0.8971 0,-0.2616 -0.0188,-0.5045 -0.0563,-0.7288 0,-0.2616 0,-0.4859 0,-0.6727 0,-0.1869 -0.0187,-0.3551 -0.0563,-0.5046 0,-0.1495 0,-0.2803 0,-0.3925 v -0.2803 c -0.0375,0 -0.0562,0.0187 -0.0562,0.0561 v 0.2242 c 0,0.1122 -0.0188,0.243 -0.0563,0.3925 0,0.1495 0,0.3177 0,0.5046 0,0.1868 -0.0187,0.4111 -0.0562,0.6727 0,0.2243 0,0.4672 0,0.7288 -0.0375,0.299 -0.0563,0.598 -0.0563,0.8971 0,0.2616 -0.0187,0.5606 -0.0562,0.897 -0.0375,0.6727 -0.0563,1.3829 -0.0563,2.1304 0,0.7475 -0.0187,1.5324 -0.0562,2.3546 v 1.2895 c 0,0.1869 -0.0188,0.3924 -0.0563,0.6167 0,0.2242 0,0.4485 0,0.6727 v 5.2139 c 0,0.1122 0,0.2243 0,0.3364 0.0375,0.1121 0.0563,0.2056 0.0563,0.2803 v 1.9062 c 0,0.4111 0,0.8222 0,1.2334 0.0375,0.3737 0.0562,0.7475 0.0562,1.1212 0,0.4112 0,0.8036 0,1.1774 0.0375,0.3363 0.0563,0.654 0.0563,0.953 0.0375,0.3364 0.0562,0.6541 0.0562,0.9531 0,0.299 0.0188,0.5793 0.0563,0.841 0,0.299 0,0.5606 0,0.7849 0.0375,0.2242 0.0562,0.4298 0.0562,0.6166 0,0.1869 0,0.3551 0,0.5046 0.0375,0.1495 0.0563,0.2803 0.0563,0.3925 v 0.2803 c 0,0.0374 0.0187,0.056 0.0562,0.056 v -0.3363 c 0,-0.1122 0,-0.243 0,-0.3925 0.0376,-0.1495 0.0563,-0.3177 0.0563,-0.5046 0,-0.1868 0,-0.3924 0,-0.6166 0.0375,-0.2243 0.0563,-0.4859 0.0563,-0.7849 0.0375,-0.2617 0.0562,-0.542 0.0562,-0.841 0,-0.299 0.0188,-0.6167 0.0563,-0.9531 0,-0.299 0,-0.6167 0,-0.953 0.0375,-0.3738 0.0562,-0.7662 0.0562,-1.1774 0,-0.3737 0,-0.7475 0,-1.1212 0.0375,-0.4112 0.0563,-0.8223 0.0563,-1.2334 v -1.2334 c 0,-0.299 0.0187,-0.5233 0.0562,-0.6728 z m 12.2631,8.1292 c -0.0375,-0.3737 -0.0562,-0.7101 -0.0562,-1.0091 0,-0.3364 -0.0188,-0.6541 -0.0563,-0.9531 -0.0375,-0.5606 -0.0938,-1.0278 -0.1688,-1.4016 0,-0.0747 -0.0187,-0.1495 -0.0562,-0.2242 0,-0.0748 0,-0.1308 0,-0.1682 v -0.1682 l -0.0563,0.0561 v 0.1121 c 0,0.0374 -0.0187,0.0934 -0.0562,0.1682 0,0.0747 0,0.1495 0,0.2242 -0.075,0.3738 -0.1313,0.841 -0.1688,1.4016 -0.0375,0.299 -0.0562,0.6167 -0.0562,0.9531 0,0.299 -0.0188,0.6354 -0.0563,1.0091 v 0.5607 c 0,0.1121 -0.0187,0.2242 -0.0562,0.3363 0,0.0748 0,0.1495 0,0.2243 v 2.3546 c 0,0.1122 0.0187,0.2056 0.0562,0.2804 v 0.8409 c 0,0.1869 0,0.3551 0,0.5046 0.0375,0.1495 0.0563,0.3177 0.0563,0.5045 0,0.1869 0,0.3551 0,0.5046 0.0375,0.1495 0.0562,0.299 0.0562,0.4485 0.0375,0.1495 0.0563,0.299 0.0563,0.4485 0,0.1122 0.0187,0.2243 0.0562,0.3364 0,0.1121 0,0.2243 0,0.3364 0.0375,0.1121 0.0563,0.2056 0.0563,0.2803 0,0.0748 0,0.1495 0,0.2243 0.0375,0.0747 0.0562,0.1308 0.0562,0.1681 v 0.1122 c 0,0.0374 0.0188,0.056 0.0563,0.056 V 79.659 c 0,-0.0373 0,-0.0934 0,-0.1681 0.0375,-0.0748 0.0562,-0.1495 0.0562,-0.2243 0,-0.0747 0,-0.1682 0,-0.2803 0.0375,-0.1121 0.0563,-0.2243 0.0563,-0.3364 0.0375,-0.1121 0.0562,-0.2242 0.0562,-0.3364 0,-0.1495 0.0188,-0.299 0.0563,-0.4485 0,-0.1495 0,-0.299 0,-0.4485 0.0375,-0.1495 0.0563,-0.3177 0.0563,-0.5046 0,-0.1868 0,-0.355 0,-0.5045 0.0375,-0.1495 0.0562,-0.3177 0.0562,-0.5046 v -0.5606 c 0,-0.1495 0.0188,-0.243 0.0563,-0.2803 v -2.635 c 0,-0.0748 -0.0188,-0.1495 -0.0563,-0.2243 0,-0.1121 0,-0.2242 0,-0.3363 z"
         fill="#f4ede8"
         id="path138" />
      <path
         d="m 73.7149,65.8675 c 0.6375,0 1.1625,0.1308 1.575,0.3924 -0.4125,0.2617 -0.7687,0.6167 -1.0688,1.0652 -0.2625,0.4485 -0.4312,0.9344 -0.5062,1.4577 v 8.4655 c -0.0375,1.1961 -0.3001,2.3173 -0.7876,3.3638 -0.45,1.0092 -1.0688,1.9062 -1.8563,2.6911 -0.7875,0.7475 -1.7063,1.3455 -2.7564,1.794 -1.05,0.4485 -2.1751,0.6728 -3.3752,0.6728 -1.2,0 -2.3251,-0.2243 -3.3751,-0.6728 -1.0501,-0.4485 -1.9689,-1.0465 -2.7564,-1.794 -0.7875,-0.7849 -1.4251,-1.6819 -1.9126,-2.6911 -0.45,-1.0465 -0.6938,-2.1677 -0.7313,-3.3638 v -8.4655 c -0.1125,-1.1587 -0.6375,-1.9996 -1.5751,-2.5229 0.4126,-0.2616 0.9376,-0.3924 1.5751,-0.3924 V 55.0473 c 0.0375,-1.1587 0.2813,-2.2613 0.7313,-3.3078 0.4875,-1.0465 1.1251,-1.9435 1.9126,-2.691 0.7875,-0.7849 1.7063,-1.4016 2.7564,-1.8501 1.05,-0.4485 2.1751,-0.6728 3.3751,-0.6728 1.2001,0 2.3252,0.2243 3.3752,0.6728 1.0501,0.4485 1.9689,1.0652 2.7564,1.8501 0.7875,0.7475 1.4063,1.6445 1.8563,2.691 0.4875,1.0465 0.7501,2.1491 0.7876,3.3078 z M 59.2017,63.8492 c 0,-0.1869 -0.0188,-0.3551 -0.0563,-0.5046 0,-0.1868 0,-0.3737 0,-0.5606 v -1.0652 c -0.0375,-0.7101 -0.0562,-1.3829 -0.0562,-2.0183 0,-0.6354 -0.0188,-1.2334 -0.0563,-1.794 -0.0375,-0.2616 -0.0562,-0.5233 -0.0562,-0.7849 0,-0.2616 -0.0188,-0.5046 -0.0563,-0.7288 0,-0.2243 -0.0187,-0.4298 -0.0562,-0.6167 0,-0.1869 0,-0.3551 0,-0.5046 0,-0.1869 -0.0188,-0.3364 -0.0563,-0.4485 0,-0.1495 0,-0.2616 0,-0.3364 v -0.2803 c -0.0375,0 -0.0563,0.0187 -0.0563,0.0561 v 0.2242 c 0,0.0748 -0.0187,0.1869 -0.0562,0.3364 0,0.1121 0,0.2616 0,0.4485 0,0.1495 -0.0188,0.3177 -0.0563,0.5046 0,0.1869 0,0.3924 0,0.6167 -0.0375,0.2242 -0.0562,0.4672 -0.0562,0.7288 0,0.2616 -0.0188,0.5233 -0.0563,0.7849 -0.0375,0.5606 -0.0562,1.1586 -0.0562,1.794 0,0.6354 -0.0188,1.3082 -0.0563,2.0183 v 1.0652 c 0,0.1869 -0.0187,0.3738 -0.0562,0.5606 0,0.1495 0,0.3177 0,0.5046 v 4.429 c 0,0.2616 0.0187,0.4485 0.0562,0.5606 v 1.6259 c 0,0.3364 0,0.6727 0,1.0091 0.0375,0.3364 0.0563,0.6541 0.0563,0.9531 0,0.3364 0,0.6541 0,0.9531 0.0375,0.2616 0.0562,0.5419 0.0562,0.8409 0.0375,0.299 0.0563,0.5793 0.0563,0.841 0,0.2242 0.0187,0.4485 0.0562,0.6727 0,0.2243 0,0.4298 0,0.6167 0.0375,0.1869 0.0563,0.3738 0.0563,0.5606 0,0.1869 0,0.3551 0,0.5046 0.0375,0.1121 0.0562,0.2056 0.0562,0.2803 v 0.1682 c 0,0.0374 0.0188,0.0561 0.0563,0.0561 v -0.2243 c 0,-0.0747 0,-0.1682 0,-0.2803 0.0375,-0.1495 0.0563,-0.3177 0.0563,-0.5046 0,-0.1868 0,-0.3737 0,-0.5606 0.0375,-0.1869 0.0562,-0.3924 0.0562,-0.6167 0.0375,-0.2242 0.0563,-0.4485 0.0563,-0.6727 0,-0.2617 0.0187,-0.542 0.0562,-0.841 0,-0.299 0,-0.5793 0,-0.8409 0.0375,-0.299 0.0563,-0.6167 0.0563,-0.9531 0,-0.299 0,-0.6167 0,-0.9531 0.0375,-0.3364 0.0562,-0.6727 0.0562,-1.0091 v -1.6259 c 0.0375,-0.1121 0.0563,-0.299 0.0563,-0.5606 z m 9.2817,-8.5777 c 0,-0.4859 -0.0188,-1.0839 -0.0563,-1.794 -0.0375,-0.7101 -0.1687,-1.3829 -0.3938,-2.0183 -0.225,-0.6354 -0.5812,-1.1773 -1.0688,-1.6258 -0.45,-0.4859 -1.125,-0.7288 -2.0251,-0.7288 -0.9,0 -1.5938,0.2429 -2.0813,0.7288 -0.45,0.4485 -0.7875,0.9904 -1.0126,1.6258 -0.225,0.6354 -0.3562,1.3082 -0.3937,2.0183 -0.0375,0.7101 -0.0563,1.3081 -0.0563,1.794 v 10.596 c 0.6376,0 1.1626,0.1308 1.5751,0.3924 -0.9375,0.5233 -1.4626,1.3642 -1.5751,2.5229 v 8.2413 c 0,0.4859 0.0188,1.0839 0.0563,1.794 0.0375,0.6728 0.1687,1.3455 0.3937,2.0183 0.2251,0.6354 0.5626,1.1773 1.0126,1.6258 0.4875,0.4485 1.1813,0.6728 2.0813,0.6728 0.9001,0 1.5751,-0.2243 2.0251,-0.6728 0.4876,-0.4485 0.8438,-0.9904 1.0688,-1.6258 0.2251,-0.6728 0.3563,-1.3455 0.3938,-2.0183 0.0375,-0.7101 0.0563,-1.3081 0.0563,-1.794 v -8.2413 c -0.075,-1.1213 -0.6001,-1.9622 -1.5751,-2.5229 0.4125,-0.2616 0.9375,-0.3924 1.5751,-0.3924 z m 3.0376,8.5777 c 0,-0.1869 0,-0.3551 0,-0.5046 0,-0.1868 -0.0187,-0.3737 -0.0562,-0.5606 v -1.0652 c 0,-0.7101 -0.0188,-1.3829 -0.0563,-2.0183 0,-0.6354 -0.0187,-1.2334 -0.0563,-1.794 -0.0375,-0.2616 -0.0562,-0.5233 -0.0562,-0.7849 0,-0.2616 -0.0188,-0.5046 -0.0563,-0.7288 0,-0.2243 -0.0187,-0.4298 -0.0562,-0.6167 0,-0.1869 0,-0.3551 0,-0.5046 0,-0.1869 -0.0188,-0.3364 -0.0563,-0.4485 0,-0.1495 0,-0.2616 0,-0.3364 v -0.2803 c -0.0375,0 -0.0562,0.0187 -0.0562,0.0561 v 0.2242 c 0,0.0748 0,0.1869 0,0.3364 0,0.1121 -0.0188,0.2616 -0.0563,0.4485 0,0.1495 -0.0187,0.3177 -0.0562,0.5046 0,0.1869 0,0.3924 0,0.6167 -0.0375,0.2242 -0.0563,0.4672 -0.0563,0.7288 0,0.2616 -0.0187,0.5233 -0.0562,0.7849 -0.0375,0.5606 -0.0563,1.1586 -0.0563,1.794 0,0.6354 -0.0187,1.3082 -0.0562,2.0183 v 2.1304 c -0.0375,0.3738 -0.0563,0.7475 -0.0563,1.1213 0,0.3737 0,0.7475 0,1.1212 0,0.3738 0,0.7475 0,1.1213 0,0.3364 0.0188,0.6914 0.0563,1.0652 v 2.1865 c 0,0.3364 0,0.6727 0,1.0091 0.0375,0.3364 0.0562,0.6541 0.0562,0.9531 0,0.3364 0,0.6541 0,0.9531 0.0375,0.2616 0.0563,0.5419 0.0563,0.8409 0.0375,0.299 0.0562,0.5793 0.0562,0.841 0,0.2242 0.0188,0.4485 0.0563,0.6727 0,0.2243 0,0.4298 0,0.6167 0.0375,0.1869 0.0562,0.3738 0.0562,0.5606 0.0375,0.1869 0.0563,0.3551 0.0563,0.5046 0,0.1121 0,0.2056 0,0.2803 v 0.1682 c 0,0.0374 0.0187,0.0561 0.0562,0.0561 v -0.2243 c 0,-0.0747 0,-0.1682 0,-0.2803 0.0375,-0.1495 0.0563,-0.3177 0.0563,-0.5046 0,-0.1868 0,-0.3737 0,-0.5606 0.0375,-0.1869 0.0562,-0.3924 0.0562,-0.6167 0.0375,-0.2242 0.0563,-0.4485 0.0563,-0.6727 0,-0.2617 0.0187,-0.542 0.0562,-0.841 0,-0.299 0,-0.5793 0,-0.8409 0.0376,-0.299 0.0563,-0.6167 0.0563,-0.9531 0,-0.299 0,-0.6167 0,-0.9531 0.0375,-0.3364 0.0563,-0.6727 0.0563,-1.0091 v -1.0652 c 0,-0.0748 0,-0.1682 0,-0.2803 0.0375,-0.1122 0.0562,-0.2056 0.0562,-0.2804 z"
         fill="#f4ede8"
         id="path140" />
      <path
         d="m 94.5899,58.6353 c 0,1.6819 -0.4125,3.1956 -1.2376,4.5411 -0.825,1.3456 -1.9313,2.3921 -3.3189,3.1396 0.6751,0.5232 1.2938,1.1399 1.8564,1.8501 0.5625,0.6727 1.0313,1.4202 1.4063,2.2425 0.4125,0.8223 0.7313,1.6632 0.9563,2.5229 0.225,0.8596 0.3375,1.7005 0.3375,2.5228 v 3.5881 c -0.0375,1.196 -0.2813,2.3172 -0.7313,3.3638 -0.45,1.0091 -1.0688,1.9061 -1.8563,2.691 -0.7876,0.7475 -1.7064,1.3455 -2.7564,1.794 -1.0501,0.4859 -2.1751,0.7288 -3.3752,0.7288 H 80.583 c -0.2625,0 -0.4876,-0.0934 -0.6751,-0.2803 -0.15,-0.1869 -0.225,-0.4111 -0.225,-0.6727 0,0.2616 -0.0937,0.4858 -0.2812,0.6727 -0.1876,0.1869 -0.3938,0.2803 -0.6188,0.2803 h -2.9814 c 0,-0.3363 0.0562,-0.5793 0.1687,-0.7288 0.1501,-0.1495 0.3001,-0.3177 0.4501,-0.5045 0.15,-0.1496 0.2812,-0.3738 0.3937,-0.6728 0.15,-0.299 0.225,-0.7662 0.225,-1.4016 V 68.6706 c -0.1125,-1.1212 -0.6375,-1.9435 -1.575,-2.4667 0.4875,-0.299 1.0125,-0.4485 1.575,-0.4485 V 47.3105 c 0,-0.6354 -0.075,-1.1025 -0.225,-1.4016 -0.1125,-0.299 -0.2437,-0.5232 -0.3937,-0.6727 -0.15,-0.1869 -0.3,-0.3551 -0.4501,-0.5046 -0.1125,-0.1495 -0.1687,-0.3924 -0.1687,-0.7288 h 2.9814 c 0.225,0 0.4312,0.0934 0.6188,0.2803 0.1875,0.1495 0.2812,0.3551 0.2812,0.6167 0,-0.598 0.3,-0.897 0.9001,-0.897 h 5.2877 c 1.2001,0 2.3251,0.2242 3.3752,0.6728 1.05,0.4485 1.9688,1.0652 2.7564,1.85 0.7875,0.7476 1.4063,1.6446 1.8563,2.6911 0.45,1.0465 0.6938,2.1491 0.7313,3.3077 z M 80.0767,62.784 c 0,-0.2616 -0.0188,-0.5046 -0.0563,-0.7288 0,-0.2617 0,-0.5046 0,-0.7288 v -1.4577 c -0.0375,-0.9718 -0.0562,-1.8875 -0.0562,-2.7471 0,-0.8596 -0.0188,-1.6632 -0.0563,-2.4107 -0.0375,-0.4111 -0.0562,-0.7849 -0.0562,-1.1213 0,-0.3364 -0.0188,-0.6541 -0.0563,-0.9531 0,-0.299 -0.0187,-0.5793 -0.0562,-0.8409 0,-0.299 0,-0.542 0,-0.7288 0,-0.2243 -0.0188,-0.4298 -0.0563,-0.6167 0,-0.1869 0,-0.3364 0,-0.4485 v -0.3364 c -0.0375,0.0374 -0.0562,0.0747 -0.0562,0.1121 v 0.2243 c 0,0.1121 -0.0188,0.2616 -0.0563,0.4485 0,0.1869 0,0.3924 0,0.6167 0,0.1868 -0.0187,0.4298 -0.0562,0.7288 0,0.2616 0,0.5419 0,0.8409 -0.0375,0.299 -0.0563,0.6167 -0.0563,0.9531 0,0.3364 -0.0187,0.7102 -0.0562,1.1213 -0.0375,0.7475 -0.0563,1.5511 -0.0563,2.4107 0,0.8596 -0.0187,1.7753 -0.0562,2.7471 v 1.4577 c 0,0.2242 0,0.4671 0,0.7288 0,0.2242 -0.0188,0.4672 -0.0563,0.7288 v 5.9988 c 0,0.1495 0,0.2803 0,0.3924 0.0375,0.1121 0.0563,0.243 0.0563,0.3925 v 2.1304 c 0,0.4858 0,0.9717 0,1.4576 0.0375,0.4485 0.0562,0.8783 0.0562,1.2895 0,0.4111 0,0.8222 0,1.2334 0.0375,0.4111 0.0563,0.8222 0.0563,1.2333 0.0375,0.1869 0.0562,0.3738 0.0562,0.5607 0,0.1495 0,0.3177 0,0.5046 0,0.1868 0,0.355 0,0.5045 0.0375,0.1495 0.0563,0.299 0.0563,0.4485 0,0.299 0,0.598 0,0.897 0.0375,0.2617 0.0562,0.5046 0.0562,0.7289 0,0.2242 0,0.4298 0,0.6167 0.0375,0.1495 0.0563,0.2803 0.0563,0.3924 v 0.2803 c 0,0.0374 0.0187,0.0748 0.0562,0.1121 v -0.3924 c 0,-0.1121 0,-0.2429 0,-0.3924 0.0375,-0.1869 0.0563,-0.3925 0.0563,-0.6167 0,-0.2243 0,-0.4672 0,-0.7289 0.0375,-0.299 0.0562,-0.598 0.0562,-0.897 0.0375,-0.1495 0.0563,-0.299 0.0563,-0.4485 0,-0.1495 0,-0.3177 0,-0.5045 0,-0.1869 0,-0.3551 0,-0.5046 0.0375,-0.1869 0.0562,-0.3738 0.0562,-0.5607 0,-0.4111 0,-0.8222 0,-1.2333 0.0375,-0.4112 0.0563,-0.8223 0.0563,-1.2334 0,-0.4112 0,-0.841 0,-1.2895 0.0375,-0.4859 0.0562,-0.9718 0.0562,-1.4576 v -1.4016 c 0,-0.3364 0.0188,-0.5793 0.0563,-0.7288 z m 11.588,15.1371 c -0.0375,0.1121 -0.0562,0.299 -0.0562,0.5606 v 1.0092 c 0,0.1868 -0.0188,0.355 -0.0563,0.5045 0,0.1495 0,0.299 0,0.4485 0,0.1495 -0.0187,0.2804 -0.0562,0.3925 0,0.1121 0,0.2242 0,0.3364 v 0.1682 c -0.0375,0.0373 -0.0563,0.0934 -0.0563,0.1681 v 0.2804 c -0.0375,0.0373 -0.0562,0.0747 -0.0562,0.1121 v 0.1121 c 0,0.0374 -0.0188,0.0748 -0.0563,0.1121 0,0 0,0.0187 0,0.0561 0,0.0374 -0.0187,0.0748 -0.0562,0.1121 h 0.0562 c 0,0 0.0188,-0.0373 0.0563,-0.1121 0,0 0.0187,-0.0374 0.0562,-0.1121 0.0375,-0.0374 0.0563,-0.0748 0.0563,-0.1122 0.0375,-0.0373 0.0562,-0.0747 0.0562,-0.1121 0.0375,-0.0374 0.0563,-0.0747 0.0563,-0.1121 0.0375,-0.0374 0.0562,-0.0934 0.0562,-0.1682 0.0751,-0.0747 0.1126,-0.1682 0.1126,-0.2803 0.075,-0.1495 0.15,-0.4111 0.225,-0.7849 0.075,-0.2243 0.1125,-0.3738 0.1125,-0.4485 0.0375,-0.0748 0.0562,-0.1495 0.0562,-0.2243 0,-0.1121 0.0188,-0.2055 0.0563,-0.2803 0,-0.0747 0,-0.1495 0,-0.2242 0.0375,-0.1122 0.0562,-0.2056 0.0562,-0.2803 0.0375,-0.1122 0.0563,-0.2804 0.0563,-0.5046 0.0375,-0.1869 0.0562,-0.3738 0.0562,-0.5606 0,-0.1869 0.0188,-0.3738 0.0563,-0.5607 v -2.3546 c 0,-0.1869 -0.0188,-0.3738 -0.0563,-0.5607 0,-0.1868 -0.0187,-0.3737 -0.0562,-0.5606 0,-0.2243 -0.0188,-0.3924 -0.0563,-0.5046 0,-0.0747 -0.0187,-0.1495 -0.0562,-0.2242 0,-0.1122 0,-0.2056 0,-0.2803 -0.0375,-0.0748 -0.0563,-0.1495 -0.0563,-0.2243 0,-0.1121 -0.0187,-0.2056 -0.0562,-0.2803 0,-0.0748 -0.0188,-0.1495 -0.0563,-0.2243 0,-0.0747 0,-0.1495 0,-0.2242 -0.075,-0.2243 -0.1125,-0.3551 -0.1125,-0.3925 -0.0375,-0.1121 -0.0937,-0.2429 -0.1687,-0.3924 0,-0.1121 -0.0375,-0.2056 -0.1126,-0.2803 0,-0.1121 -0.0375,-0.2056 -0.1125,-0.2803 -0.075,-0.1495 -0.1312,-0.2617 -0.1687,-0.3364 -0.0375,-0.0374 -0.0563,-0.0748 -0.0563,-0.1121 H 91.271 c 0,0 0.0187,0.0373 0.0562,0.1121 0,0.0374 0,0.0747 0,0.1121 0.0375,0 0.0563,0.0187 0.0563,0.0561 0,0.0747 0.0187,0.1495 0.0562,0.2242 v 0.2803 c 0.0375,0.0748 0.0563,0.1682 0.0563,0.2804 0,0.1868 0.0187,0.3177 0.0562,0.3924 v 0.3924 c 0.0375,0.1495 0.0563,0.299 0.0563,0.4486 0,0.1495 0,0.3176 0,0.5045 v 0.5046 c 0,0.0747 0,0.1682 0,0.2803 0.0375,0.0748 0.0562,0.1495 0.0562,0.2243 z m -2.3063,-2.4668 c 0,-0.4859 -0.0188,-1.1773 -0.0563,-2.0743 -0.0375,-0.897 -0.1687,-1.7941 -0.3937,-2.6911 -0.225,-0.897 -0.5813,-1.6632 -1.0688,-2.2986 -0.4501,-0.6727 -1.1251,-1.0091 -2.0251,-1.0091 h -2.0251 c -0.4125,0 -0.7688,0.1495 -1.0688,0.4485 -0.3,0.299 -0.4501,0.6541 -0.4501,1.0652 v 14.5765 c 0,0.4111 0.1501,0.7662 0.4501,1.0652 0.3,0.2616 0.6563,0.4111 1.0688,0.4485 h 2.0251 c 0.9,0 1.575,-0.2243 2.0251,-0.6728 0.4875,-0.4859 0.8438,-1.0465 1.0688,-1.6819 0.225,-0.6354 0.3562,-1.3081 0.3937,-2.0183 0.0375,-0.7101 0.0563,-1.3081 0.0563,-1.794 z m 0,-22.7056 c 0,-0.4859 -0.0188,-1.0652 -0.0563,-1.738 -0.0375,-0.7101 -0.1687,-1.3829 -0.3937,-2.0183 -0.225,-0.6354 -0.5813,-1.1773 -1.0688,-1.6258 -0.4501,-0.4859 -1.1251,-0.7288 -2.0251,-0.7288 h -2.0251 c -0.4125,0 -0.7688,0.1495 -1.0688,0.4485 -0.3,0.299 -0.4501,0.654 -0.4501,1.0652 v 15.081 c 0,0.4111 0.1501,0.7662 0.4501,1.0652 0.3,0.299 0.6563,0.4485 1.0688,0.4485 h 2.0251 c 0.9,0 1.575,-0.2242 2.0251,-0.6727 0.4875,-0.4485 0.8438,-0.9905 1.0688,-1.6259 0.225,-0.6727 0.3562,-1.3455 0.3937,-2.0183 0.0375,-0.7101 0.0563,-1.3081 0.0563,-1.794 z m 2.5314,7.4003 c 0.075,-0.2242 0.1125,-0.3737 0.1125,-0.4485 0.075,-0.1495 0.1125,-0.299 0.1125,-0.4485 0.0375,-0.0747 0.0562,-0.1495 0.0562,-0.2242 0,-0.1122 0.0188,-0.2056 0.0563,-0.2804 0,-0.0747 0,-0.1495 0,-0.2242 0.0375,-0.1121 0.0562,-0.2243 0.0562,-0.3364 0.0375,-0.1121 0.0563,-0.299 0.0563,-0.5606 0.0375,-0.1869 0.0562,-0.3738 0.0562,-0.5607 0,-0.1868 0.0188,-0.3737 0.0563,-0.5606 v -1.2334 c 0,-0.4111 0,-0.8036 0,-1.1773 0,-0.4111 -0.0188,-0.8036 -0.0563,-1.1773 -0.0375,-0.1122 -0.0562,-0.2056 -0.0562,-0.2804 0,-0.1121 -0.0188,-0.2055 -0.0563,-0.2803 0,-0.2616 -0.0187,-0.4485 -0.0562,-0.5606 -0.0375,-0.1869 -0.075,-0.3551 -0.1125,-0.5046 0,-0.1495 -0.0188,-0.299 -0.0563,-0.4485 -0.075,-0.2242 -0.1125,-0.3737 -0.1125,-0.4485 -0.075,-0.1495 -0.1125,-0.2616 -0.1125,-0.3364 -0.075,-0.1495 -0.1312,-0.2616 -0.1688,-0.3363 0,-0.1122 -0.0375,-0.2056 -0.1125,-0.2804 -0.0375,-0.1121 -0.0937,-0.2429 -0.1687,-0.3924 L 91.271,48.9364 v 0.056 c 0,0.0374 0,0.0561 0,0.0561 0.0375,0 0.0562,0.0187 0.0562,0.0561 0.0375,0.0373 0.0563,0.0934 0.0563,0.1681 0,0.0748 0.0187,0.1495 0.0562,0.2243 v 0.2803 c 0.0375,0.0748 0.0563,0.1869 0.0563,0.3364 0,0.0747 0,0.1495 0,0.2242 0.0375,0.0374 0.0562,0.0935 0.0562,0.1682 v 0.3925 c 0.0375,0.1495 0.0563,0.299 0.0563,0.4485 0,0.1495 0,0.3177 0,0.5046 v 0.5606 c 0,0.0747 0,0.1682 0,0.2803 0.0375,0.0748 0.0562,0.1495 0.0562,0.2243 v 4.1486 c -0.0375,0.1122 -0.0562,0.299 -0.0562,0.5607 v 1.0652 c 0,0.1869 -0.0188,0.355 -0.0563,0.5045 0,0.1496 0,0.2991 0,0.4486 0,0.1495 -0.0187,0.299 -0.0562,0.4485 0,0.1121 0,0.2242 0,0.3363 0,0.1869 -0.0188,0.299 -0.0563,0.3364 v 0.3364 c -0.0375,0 -0.0562,0.0374 -0.0562,0.1121 v 0.1122 c 0,0.0373 -0.0188,0.0747 -0.0563,0.1121 0,0 0,0.0187 0,0.056 0,0.0374 -0.0187,0.0748 -0.0562,0.1122 l 0.1125,-0.1122 c 0,-0.0373 0,-0.056 0,-0.056 0.0375,-0.0374 0.0562,-0.0748 0.0562,-0.1121 0.0375,0 0.0563,-0.0374 0.0563,-0.1122 0.0375,0 0.0562,-0.0373 0.0562,-0.1121 0.0375,0 0.0563,-0.0374 0.0563,-0.1121 0.0375,-0.0374 0.0562,-0.0935 0.0562,-0.1682 0.0751,-0.0748 0.1126,-0.1682 0.1126,-0.2803 0.075,-0.2243 0.1125,-0.3551 0.1125,-0.3925 z"
         fill="#f4ede8"
         id="path142" />
      <path
         d="m 115.867,82.4062 c 0.15,0.6353 0.319,1.1025 0.506,1.4015 0.188,0.299 0.375,0.542 0.563,0.7289 0.187,0.1868 0.356,0.355 0.506,0.5045 0.15,0.1495 0.263,0.3925 0.338,0.7289 h -2.982 c -0.262,0 -0.506,-0.0935 -0.731,-0.2804 -0.188,-0.1868 -0.3,-0.4111 -0.338,-0.6727 0.038,0.2616 -0.018,0.4859 -0.168,0.6727 -0.15,0.1869 -0.338,0.2804 -0.563,0.2804 h -2.981 c -0.075,-0.3364 -0.056,-0.5794 0.056,-0.7289 0.113,-0.1495 0.225,-0.299 0.338,-0.4485 0.112,-0.1869 0.206,-0.4298 0.281,-0.7288 0.075,-0.3364 0.056,-0.8409 -0.056,-1.5137 V 82.294 l -1.238,-6.3351 c -0.075,-0.3738 -0.281,-0.6915 -0.619,-0.9531 -0.337,-0.299 -0.712,-0.4485 -1.125,-0.4485 h -3.881 c -0.413,0 -0.788,0.1495 -1.125,0.4485 -0.338,0.2616 -0.544,0.5793 -0.619,0.9531 l -1.181,6.3351 v 0.0561 c -0.113,0.6728 -0.15,1.1773 -0.113,1.5137 0.075,0.299 0.169,0.5419 0.281,0.7288 0.15,0.1495 0.263,0.299 0.338,0.4485 0.112,0.1495 0.15,0.3925 0.112,0.7289 h -2.9811 c -0.2625,0 -0.4687,-0.0935 -0.6187,-0.2804 -0.15,-0.1868 -0.2063,-0.4111 -0.1688,-0.6727 -0.0375,0.2616 -0.15,0.4859 -0.3375,0.6727 -0.1875,0.1869 -0.4125,0.2804 -0.675,0.2804 h -2.9814 c 0.0375,-0.3364 0.1312,-0.5794 0.2812,-0.7289 0.15,-0.1495 0.3188,-0.3177 0.5063,-0.5045 0.1875,-0.1869 0.375,-0.4299 0.5625,-0.7289 0.1875,-0.299 0.3563,-0.7662 0.5063,-1.4015 l 2.5314,-13.6234 c 0.075,-0.5233 0.0187,-1.0092 -0.1688,-1.4577 -0.1875,-0.4485 -0.4875,-0.8035 -0.9,-1.0652 0.6,-0.2616 1.1438,-0.3924 1.6313,-0.3924 l 3.0373,-15.9781 c 0.113,-0.6353 0.132,-1.1025 0.057,-1.4015 -0.075,-0.3364 -0.169,-0.5794 -0.282,-0.7289 -0.112,-0.1868 -0.225,-0.355 -0.337,-0.5045 -0.113,-0.1495 -0.131,-0.3925 -0.056,-0.7289 h 3.768 c 0.563,0.0748 0.844,0.3925 0.844,0.9531 0,-0.2616 0.075,-0.4672 0.225,-0.6167 0.188,-0.1869 0.394,-0.299 0.619,-0.3364 h 3.825 c 0.075,0.3364 0.057,0.5794 -0.056,0.7289 -0.075,0.1495 -0.169,0.3177 -0.281,0.5045 -0.113,0.1495 -0.207,0.3925 -0.282,0.7289 -0.075,0.299 -0.056,0.7662 0.057,1.4015 l 2.981,15.9781 c 0.3,0 0.581,0.0374 0.844,0.1121 0.262,0.0748 0.525,0.1682 0.787,0.2803 -0.825,0.5233 -1.181,1.3642 -1.068,2.5229 z M 102.366,62.3355 c 0.075,-0.2243 0.113,-0.4298 0.113,-0.6167 0.037,-0.2243 0.075,-0.4298 0.112,-0.6167 0.188,-0.8596 0.338,-1.6632 0.45,-2.4107 0.113,-0.7849 0.225,-1.495 0.338,-2.1304 0.075,-0.299 0.112,-0.598 0.112,-0.897 0.038,-0.299 0.075,-0.598 0.113,-0.8971 0.037,-0.2616 0.075,-0.5045 0.112,-0.7288 0.038,-0.2242 0.075,-0.4298 0.113,-0.6167 0.037,-0.1868 0.056,-0.355 0.056,-0.5045 0,-0.1869 0.019,-0.3364 0.056,-0.4485 v -0.2243 l -0.056,0.2243 c -0.037,0.1121 -0.075,0.2429 -0.112,0.3924 -0.038,0.1495 -0.075,0.3177 -0.113,0.5046 -0.075,0.1868 -0.131,0.4111 -0.169,0.6727 -0.037,0.2243 -0.093,0.4485 -0.168,0.6728 -0.075,0.299 -0.15,0.598 -0.225,0.897 -0.038,0.299 -0.094,0.598 -0.169,0.897 -0.188,0.6354 -0.375,1.3268 -0.563,2.0744 -0.15,0.7101 -0.318,1.495 -0.506,2.3546 0,0.2243 -0.019,0.4298 -0.056,0.6167 -0.038,0.1869 -0.094,0.3925 -0.169,0.6167 -0.037,0.2243 -0.075,0.4485 -0.112,0.6728 -0.038,0.1868 -0.075,0.3924 -0.113,0.6167 -0.112,0.4111 -0.225,0.8409 -0.337,1.2894 -0.075,0.4485 -0.15,0.897 -0.225,1.3455 -0.075,0.4112 -0.169,0.841 -0.282,1.2895 -0.075,0.4485 -0.15,0.8783 -0.225,1.2894 -0.037,0.1122 -0.056,0.2243 -0.056,0.3364 0,0.0748 -0.019,0.1682 -0.056,0.2803 -0.075,0.299 -0.113,0.5233 -0.113,0.6728 -0.112,0.3738 -0.1872,0.7849 -0.2247,1.2334 -0.075,0.4111 -0.15,0.8223 -0.225,1.2334 -0.0751,0.4111 -0.1313,0.7849 -0.1688,1.1213 -0.1125,0.8596 -0.225,1.5697 -0.3375,2.1304 -0.075,0.299 -0.1313,0.598 -0.1688,0.897 -0.0375,0.299 -0.075,0.598 -0.1125,0.897 -0.075,0.2616 -0.1312,0.5232 -0.1687,0.7849 0,0.2242 -0.0188,0.4298 -0.0563,0.6167 -0.0375,0.1868 -0.0562,0.355 -0.0562,0.5045 0,0.1495 -0.0188,0.2804 -0.0563,0.3925 0,0.0747 -0.0187,0.1308 -0.0563,0.1682 0,0 0,0.0187 0,0.056 v 0.0561 c 0.0376,0 0.0563,-0.0187 0.0563,-0.0561 0,-0.0747 0.0188,-0.1495 0.0563,-0.2242 0.0375,-0.0748 0.0562,-0.1869 0.0562,-0.3364 0.0375,-0.1869 0.0938,-0.3738 0.1688,-0.5606 0.075,-0.1869 0.1312,-0.3925 0.1687,-0.6167 0.075,-0.2243 0.15,-0.4672 0.225,-0.7289 0.075,-0.2616 0.1313,-0.5419 0.1688,-0.8409 0.075,-0.299 0.1312,-0.598 0.1687,-0.897 0.075,-0.299 0.1501,-0.6167 0.2251,-0.9531 0.1125,-0.3737 0.2062,-0.7475 0.2812,-1.1213 0.075,-0.3737 0.15,-0.7662 0.225,-1.1773 0.113,-0.4111 0.225,-0.8222 0.338,-1.2334 0.037,-0.1869 0.075,-0.3737 0.112,-0.5606 0.038,-0.2243 0.075,-0.4298 0.113,-0.6167 l 0.168,-0.6728 c 0.038,-0.1121 0.057,-0.2242 0.057,-0.3363 0,-0.1122 0.018,-0.2243 0.056,-0.3364 0.075,-0.4112 0.169,-0.8223 0.281,-1.2334 0.113,-0.4485 0.206,-0.897 0.281,-1.3455 0.075,-0.4112 0.15,-0.841 0.225,-1.2895 0.075,-0.4485 0.15,-0.8783 0.225,-1.2895 0.038,-0.2242 0.075,-0.4485 0.113,-0.6727 0.037,-0.2243 0.075,-0.4298 0.112,-0.6167 z m 4.782,9.5868 c 0.412,-0.0374 0.731,-0.1869 0.956,-0.4485 0.263,-0.299 0.356,-0.6541 0.281,-1.0652 l -0.337,-1.6258 c -0.15,-0.5233 -0.413,-1.0092 -0.788,-1.4577 -0.337,-0.4485 -0.75,-0.8035 -1.237,-1.0652 0.45,-0.2616 0.937,-0.3924 1.462,-0.3924 l -1.8,-9.5868 -1.8,9.5868 c 0.488,0 0.994,0.1308 1.519,0.3924 -0.525,0.2617 -0.975,0.6167 -1.35,1.0652 -0.338,0.4485 -0.563,0.9344 -0.675,1.4577 l -0.281,1.6258 c -0.075,0.4111 0,0.7662 0.225,1.0652 0.225,0.2616 0.525,0.4111 0.9,0.4485 z m 5.681,7.8489 c 0,0.0747 0,0.1308 0,0.1682 0.038,0 0.057,0.0187 0.057,0.056 v -0.2242 c -0.038,-0.1121 -0.057,-0.243 -0.057,-0.3925 0,-0.1495 -0.018,-0.3177 -0.056,-0.5045 -0.037,-0.1869 -0.075,-0.3925 -0.112,-0.6167 0,-0.2617 -0.038,-0.5233 -0.113,-0.7849 -0.037,-0.299 -0.075,-0.598 -0.112,-0.897 -0.038,-0.299 -0.094,-0.598 -0.169,-0.897 -0.113,-0.5607 -0.225,-1.2708 -0.338,-2.1304 -0.075,-0.3364 -0.15,-0.7102 -0.225,-1.1213 -0.037,-0.4111 -0.093,-0.8223 -0.168,-1.2334 -0.075,-0.2243 -0.132,-0.4298 -0.169,-0.6167 0,-0.1869 -0.038,-0.3924 -0.113,-0.6167 0,-0.1495 -0.037,-0.3738 -0.112,-0.6728 0,-0.1121 -0.019,-0.2055 -0.056,-0.2803 0,-0.1121 0,-0.2242 0,-0.3364 -0.075,-0.4111 -0.169,-0.8409 -0.282,-1.2894 -0.075,-0.4485 -0.15,-0.8783 -0.225,-1.2895 -0.075,-0.4485 -0.168,-0.897 -0.281,-1.3455 -0.075,-0.4485 -0.169,-0.8783 -0.281,-1.2894 -0.038,-0.2243 -0.075,-0.4299 -0.113,-0.6167 -0.037,-0.2243 -0.075,-0.4485 -0.112,-0.6728 -0.075,-0.2242 -0.132,-0.4298 -0.169,-0.6167 -0.038,-0.1869 -0.075,-0.3924 -0.113,-0.6167 -0.187,-0.8596 -0.375,-1.6445 -0.562,-2.3546 -0.15,-0.7476 -0.281,-1.439 -0.394,-2.0744 -0.075,-0.299 -0.15,-0.598 -0.225,-0.897 -0.075,-0.299 -0.15,-0.598 -0.225,-0.897 -0.075,-0.2243 -0.15,-0.4485 -0.225,-0.6728 -0.037,-0.2616 -0.094,-0.4859 -0.169,-0.6727 -0.037,-0.1869 -0.075,-0.3551 -0.112,-0.5046 -0.038,-0.1495 -0.075,-0.2803 -0.113,-0.3924 l -0.056,-0.2243 v 0.2243 c 0.038,0.1868 0.094,0.5045 0.169,0.953 0,0.1869 0.019,0.3925 0.056,0.6167 0.038,0.2243 0.075,0.4672 0.113,0.7288 0.037,0.2991 0.075,0.5981 0.112,0.8971 0.038,0.299 0.094,0.598 0.169,0.897 0.112,0.6354 0.225,1.3455 0.337,2.1304 0.113,0.7475 0.244,1.5511 0.394,2.4107 0.038,0.1869 0.056,0.3924 0.056,0.6167 0.038,0.1869 0.094,0.3924 0.169,0.6167 0.038,0.1869 0.075,0.3924 0.113,0.6167 0.037,0.2242 0.075,0.4485 0.112,0.6727 0.075,0.4112 0.15,0.841 0.225,1.2895 0.113,0.4485 0.206,0.8783 0.281,1.2895 0.075,0.4485 0.169,0.897 0.282,1.3455 0.112,0.4111 0.206,0.8222 0.281,1.2334 0.038,0.1121 0.056,0.2242 0.056,0.3364 0,0.1121 0.019,0.2242 0.057,0.3363 l 0.168,0.6728 c 0.038,0.1869 0.075,0.3924 0.113,0.6167 0.037,0.1869 0.075,0.3737 0.112,0.5606 0.113,0.4112 0.207,0.8223 0.282,1.2334 0.075,0.4111 0.15,0.8036 0.225,1.1773 0.075,0.3738 0.15,0.7476 0.225,1.1213 0.112,0.3364 0.206,0.6541 0.281,0.9531 0.075,0.299 0.15,0.598 0.225,0.897 0.075,0.299 0.15,0.5793 0.225,0.8409 0.112,0.5233 0.225,0.9718 0.337,1.3456 0.075,0.1868 0.113,0.3737 0.113,0.5606 0.037,0.1495 0.075,0.2616 0.112,0.3364 z"
         fill="#f4ede8"
         id="path144" />
      <path
         d="m 139.469,88.1246 c 0.413,0.0748 0.694,0.2056 0.844,0.3925 0.187,0.1868 0.319,0.3737 0.394,0.5606 0.075,0.2242 0.112,0.4672 0.112,0.7288 -1.2,0 -2.325,-0.1495 -3.375,-0.4485 -1.05,-0.299 -1.988,-0.7849 -2.813,-1.4576 -0.787,-0.6728 -1.425,-1.5511 -1.912,-2.635 -0.45,-1.0839 -0.675,-2.4107 -0.675,-3.9805 v -7.6807 c 0,-0.4859 -0.019,-1.0839 -0.057,-1.794 -0.037,-0.7101 -0.168,-1.3829 -0.393,-2.0183 -0.225,-0.6354 -0.582,-1.1773 -1.069,-1.6258 -0.45,-0.4859 -1.125,-0.7288 -2.025,-0.7288 h -2.307 c -0.337,0.0747 -0.637,0.2616 -0.9,0.5606 -0.225,0.2616 -0.337,0.5793 -0.337,0.9531 v 13.3991 c 0,0.6728 0.056,1.1773 0.169,1.5137 0.15,0.299 0.3,0.5419 0.45,0.7288 0.15,0.1495 0.281,0.299 0.393,0.4485 0.15,0.1495 0.225,0.3925 0.225,0.7289 h -2.981 c -0.225,0 -0.431,-0.0935 -0.619,-0.2804 -0.187,-0.1868 -0.281,-0.3924 -0.281,-0.6167 0,0.2243 -0.094,0.4299 -0.281,0.6167 -0.15,0.1869 -0.357,0.2804 -0.619,0.2804 h -2.925 c 0,-0.3364 0.056,-0.5794 0.168,-0.7289 0.15,-0.1495 0.301,-0.299 0.451,-0.4485 0.15,-0.1869 0.281,-0.4298 0.393,-0.7288 0.15,-0.299 0.225,-0.7662 0.225,-1.4016 V 68.7828 c -0.112,-1.1587 -0.637,-1.9996 -1.575,-2.5229 0.413,-0.2616 0.938,-0.3924 1.575,-0.3924 V 49.8334 c 0,-0.6354 -0.075,-1.1026 -0.225,-1.4016 -0.112,-0.299 -0.243,-0.5233 -0.393,-0.6728 -0.15,-0.1868 -0.301,-0.355 -0.451,-0.5045 -0.112,-0.1495 -0.168,-0.3925 -0.168,-0.7289 h 2.981 c 0.225,0 0.431,0.0935 0.619,0.2804 0.187,0.1495 0.281,0.355 0.281,0.6167 0,-0.5981 0.3,-0.8971 0.9,-0.8971 h 5.288 c 1.2,0 2.325,0.2243 3.375,0.6728 1.05,0.4485 1.969,1.0652 2.757,1.8501 0.787,0.7475 1.406,1.6445 1.856,2.691 0.45,1.0465 0.694,2.1491 0.731,3.3078 v 3.6441 c 0,1.5698 -0.375,3.0087 -1.125,4.3169 -0.75,1.3081 -1.762,2.3546 -3.038,3.1395 1.276,0.7475 2.288,1.794 3.038,3.1395 0.75,1.3082 1.125,2.7471 1.125,4.3169 v 7.4564 c 0,0.7849 0,1.5885 0,2.4108 0.038,0.7848 0.131,1.5137 0.281,2.1864 0.15,0.6354 0.375,1.1774 0.675,1.6259 0.3,0.4485 0.713,0.7288 1.238,0.8409 z M 134.35,57.7383 c -0.038,0.0748 -0.056,0.1682 -0.056,0.2803 v 1.2895 c -0.038,0.1495 -0.057,0.299 -0.057,0.4485 0,0.1121 0,0.2242 0,0.3364 0,0.0747 -0.018,0.1308 -0.056,0.1682 0,0.0373 0,0.0934 0,0.1681 v 0.3364 c -0.037,0.0748 -0.056,0.1682 -0.056,0.2803 0,0.0748 -0.019,0.1495 -0.056,0.2243 0,0.0747 -0.019,0.1308 -0.057,0.1682 v 0.1121 l -0.056,0.1121 c 0,0 0.038,-0.0187 0.113,-0.056 v -0.0561 l 0.056,-0.0561 c 0.037,-0.0373 0.056,-0.056 0.056,-0.056 0,-0.0374 0.019,-0.0748 0.056,-0.1121 0.038,-0.0748 0.075,-0.1495 0.113,-0.2243 0.037,-0.1121 0.075,-0.2056 0.113,-0.2803 0.037,-0.0748 0.056,-0.1121 0.056,-0.1121 0,-0.0374 0.018,-0.0935 0.056,-0.1682 0.038,-0.0748 0.056,-0.1308 0.056,-0.1682 0,-0.0748 0.019,-0.1495 0.057,-0.2243 0.037,-0.0747 0.056,-0.1308 0.056,-0.1682 0,-0.0373 0.019,-0.0934 0.056,-0.1682 0,-0.0747 0,-0.1308 0,-0.1681 0.038,-0.0748 0.056,-0.1495 0.056,-0.2243 0.038,-0.1495 0.057,-0.299 0.057,-0.4485 0.037,-0.1495 0.075,-0.299 0.112,-0.4485 0.038,-0.1121 0.056,-0.2803 0.056,-0.5046 0,-0.0747 0,-0.1495 0,-0.2242 0.038,-0.0748 0.057,-0.1495 0.057,-0.2243 v -1.9622 c 0,-0.2243 -0.019,-0.3924 -0.057,-0.5046 v -0.2242 c 0,-0.0748 -0.018,-0.1122 -0.056,-0.1122 0,-0.0373 0,-0.0934 0,-0.1681 0,-0.1869 -0.037,-0.4672 -0.112,-0.841 -0.038,-0.0747 -0.057,-0.1495 -0.057,-0.2242 0,-0.0748 -0.018,-0.1495 -0.056,-0.2243 0,-0.0374 -0.019,-0.0561 -0.056,-0.0561 0,-0.0373 0,-0.0747 0,-0.1121 0,-0.0374 -0.019,-0.056 -0.056,-0.056 0,-0.0374 0,-0.0748 0,-0.1122 -0.038,-0.0747 -0.057,-0.1308 -0.057,-0.1682 0,-0.0373 -0.018,-0.0934 -0.056,-0.1682 -0.038,-0.0747 -0.056,-0.1308 -0.056,-0.1681 0,-0.0374 -0.019,-0.0935 -0.056,-0.1682 -0.038,-0.0374 -0.057,-0.0748 -0.057,-0.1122 0,-0.0373 -0.019,-0.0747 -0.056,-0.1121 -0.075,-0.1495 -0.113,-0.2242 -0.113,-0.2242 -0.037,-0.0374 -0.056,-0.0561 -0.056,-0.0561 0,-0.0374 -0.019,-0.0748 -0.056,-0.1121 -0.038,-0.0374 -0.056,-0.0748 -0.056,-0.1122 -0.038,-0.0373 -0.057,-0.0747 -0.057,-0.1121 h -0.056 c 0,0 0.019,0.0374 0.056,0.1121 v 0.1122 c 0.038,0.0373 0.057,0.1121 0.057,0.2242 0,0.0374 0,0.0748 0,0.1121 0.037,0 0.056,0.0374 0.056,0.1122 0,0.1121 0.019,0.2055 0.056,0.2803 v 0.2803 c 0,0.0748 0,0.1308 0,0.1682 0.038,0.0374 0.056,0.0934 0.056,0.1682 0,0.3364 0.019,0.598 0.057,0.7849 v 0.897 c 0.037,0.1869 0.056,0.4859 0.056,0.897 z m -11.588,5.7745 c 0,-0.1869 -0.019,-0.3924 -0.056,-0.6167 0,-0.2242 0,-0.4485 0,-0.6727 V 60.99 c -0.038,-0.8223 -0.057,-1.6072 -0.057,-2.3547 0,-0.7475 -0.018,-1.4576 -0.056,-2.1304 -0.037,-0.299 -0.056,-0.598 -0.056,-0.897 0,-0.299 -0.019,-0.5793 -0.056,-0.841 0,-0.299 -0.019,-0.5606 -0.057,-0.7848 0,-0.2243 0,-0.4299 0,-0.6167 0,-0.1869 -0.018,-0.3551 -0.056,-0.5046 0,-0.1495 0,-0.2803 0,-0.3924 V 52.188 c -0.037,0 -0.056,0.0187 -0.056,0.0561 v 0.2243 c 0,0.1121 -0.019,0.2429 -0.056,0.3924 0,0.1495 0,0.3177 0,0.5046 0,0.1868 -0.019,0.3924 -0.057,0.6167 0,0.2242 0,0.4858 0,0.7848 -0.037,0.2617 -0.056,0.542 -0.056,0.841 0,0.299 -0.019,0.598 -0.056,0.897 -0.038,0.6728 -0.056,1.3829 -0.056,2.1304 0,0.7475 -0.019,1.5324 -0.057,2.3547 v 1.2334 c 0,0.2242 -0.018,0.4485 -0.056,0.6727 0,0.2243 0,0.4298 0,0.6167 v 5.2139 c 0,0.299 0.019,0.5233 0.056,0.6728 v 1.8501 c 0,0.4111 0,0.8222 0,1.2334 0.038,0.3737 0.057,0.7475 0.057,1.1212 0,0.4111 0,0.7849 0,1.1213 0.037,0.3364 0.056,0.6727 0.056,1.0091 0.037,0.3364 0.056,0.6541 0.056,0.9531 0,0.2616 0.019,0.5419 0.056,0.8409 0,0.2617 0,0.5046 0,0.7289 0.038,0.2242 0.057,0.4298 0.057,0.6167 0,0.1868 0,0.3737 0,0.5606 0.037,0.1495 0.056,0.2616 0.056,0.3364 v 0.2803 c 0,0.0374 0.019,0.0561 0.056,0.0561 v -0.3364 c 0,-0.0748 0,-0.1869 0,-0.3364 0.038,-0.1869 0.056,-0.3738 0.056,-0.5606 0,-0.1869 0,-0.3925 0,-0.6167 0.038,-0.2243 0.057,-0.4672 0.057,-0.7289 0.037,-0.299 0.056,-0.5793 0.056,-0.8409 0,-0.299 0.019,-0.6167 0.056,-0.9531 0,-0.3364 0,-0.6727 0,-1.0091 0.038,-0.3364 0.056,-0.7102 0.056,-1.1213 0,-0.3737 0,-0.7475 0,-1.1212 0.038,-0.4112 0.057,-0.8223 0.057,-1.2334 v -1.2334 c 0,-0.299 0.018,-0.5046 0.056,-0.6167 z m 9.282,-8.2413 c 0,-0.4859 -0.019,-1.0839 -0.057,-1.794 -0.037,-0.7101 -0.168,-1.3829 -0.393,-2.0183 -0.225,-0.6354 -0.582,-1.1773 -1.069,-1.6258 -0.45,-0.4859 -1.125,-0.7288 -2.025,-0.7288 h -2.025 c -0.413,0.0373 -0.769,0.2055 -1.069,0.5045 -0.3,0.299 -0.45,0.6541 -0.45,1.0652 v 12.6143 c 0,0.4111 0.15,0.7662 0.45,1.0652 0.3,0.299 0.656,0.4485 1.069,0.4485 h 2.025 c 0.9,0 1.575,-0.2243 2.025,-0.6728 0.487,-0.4485 0.844,-0.9904 1.069,-1.6258 0.225,-0.6728 0.356,-1.3455 0.393,-2.0183 0.038,-0.7101 0.057,-1.3081 0.057,-1.794 z m 3.769,30.7227 c 0,0 -0.019,-0.0187 -0.057,-0.0561 l -0.056,-0.056 c -0.037,-0.0748 -0.075,-0.1495 -0.112,-0.2243 0,-0.0747 -0.038,-0.1495 -0.113,-0.2242 -0.037,-0.1122 -0.075,-0.2243 -0.112,-0.3364 -0.038,-0.1495 -0.075,-0.3177 -0.113,-0.5046 -0.075,-0.3737 -0.112,-0.7288 -0.112,-1.0652 -0.038,-0.1869 -0.057,-0.3737 -0.057,-0.5606 0,-0.2243 0,-0.4672 0,-0.7288 v -2.9714 c 0,-0.2616 0,-0.5232 0,-0.7849 0,-0.2616 0.019,-0.5419 0.057,-0.8409 0,-0.2617 0,-0.5233 0,-0.7849 0,-0.2616 -0.019,-0.5233 -0.057,-0.7849 v -0.7849 c 0,-0.3737 -0.018,-0.6354 -0.056,-0.7849 0,-0.2616 -0.019,-0.5045 -0.056,-0.7288 0,-0.2616 -0.019,-0.5046 -0.056,-0.7288 -0.075,-0.5233 -0.15,-0.9718 -0.225,-1.3455 -0.038,-0.1869 -0.075,-0.3551 -0.113,-0.5046 -0.038,-0.1869 -0.094,-0.3738 -0.169,-0.5606 -0.075,-0.1869 -0.131,-0.3364 -0.169,-0.4485 -0.037,-0.1122 -0.093,-0.2243 -0.168,-0.3364 -0.075,-0.1122 -0.132,-0.2056 -0.169,-0.2803 -0.038,-0.0748 -0.075,-0.1495 -0.113,-0.2243 -0.037,0 -0.075,-0.0187 -0.112,-0.0561 -0.038,0 -0.056,-0.0186 -0.056,-0.056 l 0.056,0.056 c 0,0.0374 0.019,0.0748 0.056,0.1122 0,0.0373 0,0.0747 0,0.1121 0.038,0 0.056,0.0374 0.056,0.1121 0.038,0.0374 0.057,0.0748 0.057,0.1121 0,0.0374 0.018,0.0935 0.056,0.1682 0.037,0.1495 0.094,0.4112 0.169,0.7849 0.037,0.1869 0.056,0.3738 0.056,0.5607 0.037,0.1868 0.075,0.3737 0.112,0.5606 0,0.1869 0,0.3924 0,0.6167 0.038,0.1869 0.057,0.4111 0.057,0.6727 v 6.9519 c 0,0.1495 0,0.2803 0,0.3924 0.037,0.1122 0.056,0.243 0.056,0.3925 0,0.2616 0,0.5232 0,0.7849 0.037,0.2242 0.075,0.4485 0.113,0.6727 0.037,0.2243 0.056,0.4485 0.056,0.6728 0.037,0.2242 0.075,0.4298 0.112,0.6167 0.075,0.2242 0.132,0.4298 0.169,0.6167 0.038,0.1495 0.094,0.3177 0.169,0.5046 0.075,0.1868 0.131,0.3363 0.169,0.4485 0.037,0.1121 0.093,0.2242 0.168,0.3363 l 0.113,0.1122 c 0.037,0.0373 0.056,0.0747 0.056,0.1121 0,0 0.019,0.0187 0.056,0.0561 l 0.225,0.2242 z"
         fill="#f4ede8"
         id="path146" />
      <path
         d="m 156.336,58.6914 c 0,1.5698 -0.375,3.0087 -1.125,4.3169 -0.75,1.3081 -1.763,2.3546 -3.038,3.1395 1.275,0.7475 2.288,1.794 3.038,3.1395 0.75,1.3082 1.125,2.7471 1.125,4.3169 v 3.6441 c -0.037,1.1961 -0.281,2.3173 -0.731,3.3638 -0.45,1.0092 -1.069,1.9062 -1.857,2.6911 -0.787,0.7475 -1.706,1.3455 -2.756,1.794 -1.05,0.4485 -2.175,0.6728 -3.375,0.6728 h -5.344 c -0.225,0 -0.431,-0.0935 -0.619,-0.2804 -0.187,-0.1868 -0.281,-0.3924 -0.281,-0.6167 0,0.2243 -0.094,0.4299 -0.281,0.6167 -0.15,0.1869 -0.357,0.2804 -0.619,0.2804 h -2.925 c 0,-0.3364 0.056,-0.5794 0.168,-0.7289 0.15,-0.1495 0.3,-0.299 0.45,-0.4485 0.15,-0.1869 0.282,-0.4298 0.394,-0.7288 0.15,-0.299 0.225,-0.7662 0.225,-1.4016 V 68.7828 c -0.112,-1.1587 -0.637,-1.9996 -1.575,-2.5229 0.413,-0.2616 0.938,-0.3924 1.575,-0.3924 V 49.8334 c 0,-0.6354 -0.075,-1.1026 -0.225,-1.4016 -0.112,-0.299 -0.244,-0.5233 -0.394,-0.6728 -0.15,-0.1868 -0.3,-0.355 -0.45,-0.5045 -0.112,-0.1495 -0.168,-0.3925 -0.168,-0.7289 h 2.981 c 0.225,0 0.431,0.0935 0.619,0.2804 0.187,0.1495 0.281,0.355 0.281,0.6167 0,-0.5981 0.3,-0.8971 0.9,-0.8971 h 5.288 c 1.2,0 2.325,0.2243 3.375,0.6728 1.05,0.4485 1.969,1.0652 2.756,1.8501 0.788,0.7475 1.407,1.6445 1.857,2.691 0.45,1.0465 0.694,2.1491 0.731,3.3078 z m -14.513,4.8214 c 0,-0.1869 -0.019,-0.3924 -0.056,-0.6167 0,-0.2242 0,-0.4485 0,-0.6727 V 60.99 c -0.038,-0.8223 -0.057,-1.6072 -0.057,-2.3547 0,-0.7475 -0.018,-1.4576 -0.056,-2.1304 -0.037,-0.299 -0.056,-0.598 -0.056,-0.897 0,-0.299 -0.019,-0.5793 -0.056,-0.841 0,-0.299 -0.019,-0.5606 -0.057,-0.7848 0,-0.2243 0,-0.4299 0,-0.6167 0,-0.1869 -0.018,-0.3551 -0.056,-0.5046 0,-0.1495 0,-0.2803 0,-0.3924 V 52.188 c -0.037,0 -0.056,0.0187 -0.056,0.0561 v 0.2243 c 0,0.1121 -0.019,0.2429 -0.056,0.3924 0,0.1495 0,0.3177 0,0.5046 0,0.1868 -0.019,0.3924 -0.057,0.6167 0,0.2242 0,0.4858 0,0.7848 -0.037,0.2617 -0.056,0.542 -0.056,0.841 0,0.299 -0.019,0.598 -0.056,0.897 -0.038,0.6728 -0.056,1.3829 -0.056,2.1304 0,0.7475 -0.019,1.5324 -0.057,2.3547 v 1.2334 c 0,0.2242 -0.018,0.4485 -0.056,0.6727 0,0.2243 0,0.4298 0,0.6167 v 5.2139 c 0,0.299 0.019,0.5233 0.056,0.6728 v 1.8501 c 0,0.4111 0,0.8222 0,1.2334 0.038,0.3737 0.057,0.7475 0.057,1.1212 0,0.4111 0,0.7849 0,1.1213 0.037,0.3364 0.056,0.6727 0.056,1.0091 0.037,0.3364 0.056,0.6541 0.056,0.9531 0,0.2616 0.019,0.5419 0.056,0.8409 0,0.2617 0,0.5046 0,0.7289 0.038,0.2242 0.057,0.4298 0.057,0.6167 0,0.1868 0,0.3737 0,0.5606 0.037,0.1495 0.056,0.2616 0.056,0.3364 v 0.2803 c 0,0.0374 0.019,0.0561 0.056,0.0561 v -0.3364 c 0,-0.0748 0,-0.1869 0,-0.3364 0.038,-0.1869 0.056,-0.3738 0.056,-0.5606 0,-0.1869 0,-0.3925 0,-0.6167 0.038,-0.2243 0.057,-0.4672 0.057,-0.7289 0.037,-0.299 0.056,-0.5793 0.056,-0.8409 0,-0.299 0.019,-0.6167 0.056,-0.9531 0,-0.3364 0,-0.6727 0,-1.0091 0.038,-0.3364 0.056,-0.7102 0.056,-1.1213 0,-0.3737 0,-0.7475 0,-1.1212 0.038,-0.4112 0.057,-0.8223 0.057,-1.2334 v -1.2334 c 0,-0.299 0.018,-0.5046 0.056,-0.6167 z m 11.588,13.0067 c -0.038,0.0748 -0.056,0.1682 -0.056,0.2803 v 1.2895 c -0.038,0.1495 -0.057,0.299 -0.057,0.4485 0,0.1121 0,0.2242 0,0.3364 0,0.0747 -0.018,0.1308 -0.056,0.1682 0,0.0373 0,0.0934 0,0.1681 v 0.3364 c -0.037,0.0748 -0.056,0.1682 -0.056,0.2803 0,0.0748 -0.019,0.1495 -0.056,0.2243 0,0.0747 -0.019,0.1308 -0.057,0.1682 v 0.1121 l -0.056,0.1121 c 0,0 0.038,-0.0186 0.113,-0.056 v -0.0561 l 0.056,-0.0561 c 0.037,-0.0373 0.056,-0.056 0.056,-0.056 0,-0.0374 0.019,-0.0748 0.056,-0.1121 0.038,-0.0748 0.075,-0.1495 0.113,-0.2243 0.037,-0.1121 0.075,-0.2056 0.112,-0.2803 0.038,-0.0748 0.057,-0.1121 0.057,-0.1121 0,-0.0374 0.018,-0.0935 0.056,-0.1682 0.037,-0.0748 0.056,-0.1308 0.056,-0.1682 0,-0.0374 0.019,-0.0935 0.056,-0.1682 0.038,-0.0748 0.057,-0.1308 0.057,-0.1682 0,-0.0747 0.018,-0.1495 0.056,-0.2243 0,-0.0747 0,-0.1308 0,-0.1681 0.037,-0.0748 0.056,-0.1495 0.056,-0.2243 0.038,-0.1495 0.056,-0.299 0.056,-0.4485 0.038,-0.1495 0.075,-0.299 0.113,-0.4485 0.037,-0.1121 0.056,-0.2803 0.056,-0.5046 0,-0.0747 0,-0.1495 0,-0.2242 0.038,-0.0748 0.056,-0.1495 0.056,-0.2243 v -1.9622 c 0,-0.2242 -0.018,-0.3924 -0.056,-0.5046 v -0.2242 c 0,-0.0748 -0.019,-0.1121 -0.056,-0.1121 0,-0.0374 0,-0.0748 0,-0.1122 0,-0.1868 -0.019,-0.3364 -0.056,-0.4485 0,-0.1495 -0.019,-0.299 -0.057,-0.4485 -0.037,-0.0747 -0.056,-0.1495 -0.056,-0.2242 0,-0.0748 -0.019,-0.1495 -0.056,-0.2243 0,-0.0374 -0.019,-0.0561 -0.056,-0.0561 0,-0.0373 0,-0.0747 0,-0.1121 0,-0.0374 -0.019,-0.056 -0.057,-0.056 0,-0.0374 0,-0.0748 0,-0.1122 -0.037,-0.0747 -0.056,-0.1308 -0.056,-0.1682 0,-0.0373 -0.019,-0.0934 -0.056,-0.1682 -0.038,-0.0747 -0.056,-0.1308 -0.056,-0.1681 0,-0.0374 -0.019,-0.0935 -0.057,-0.1682 -0.037,-0.0374 -0.056,-0.0748 -0.056,-0.1122 0,-0.0373 -0.019,-0.0747 -0.056,-0.1121 -0.075,-0.1495 -0.113,-0.2242 -0.113,-0.2242 -0.037,-0.0374 -0.056,-0.0561 -0.056,-0.0561 0,-0.0374 -0.019,-0.0748 -0.056,-0.1121 -0.038,-0.0374 -0.056,-0.0748 -0.056,-0.1122 l -0.113,-0.1121 c 0,0 0.019,0.0374 0.056,0.1121 v 0.1122 c 0.038,0.0373 0.057,0.1121 0.057,0.2242 0,0.0374 0,0.0748 0,0.1122 0.037,0 0.056,0.0373 0.056,0.1121 0,0.1121 0.019,0.2055 0.056,0.2803 v 0.2803 c 0,0.0748 0,0.1308 0,0.1682 0.038,0.0374 0.056,0.0934 0.056,0.1682 0,0.3364 0.019,0.598 0.057,0.7849 v 0.897 c 0.037,0.1869 0.056,0.4859 0.056,0.897 z m -2.306,-2.9153 c 0,-0.4859 -0.019,-1.0839 -0.057,-1.794 -0.037,-0.7101 -0.168,-1.3829 -0.394,-2.0183 -0.225,-0.6354 -0.581,-1.1773 -1.068,-1.6258 -0.45,-0.4859 -1.125,-0.7288 -2.025,-0.7288 h -2.026 c -0.412,0.0373 -0.768,0.2055 -1.068,0.5045 -0.3,0.299 -0.45,0.6541 -0.45,1.0652 v 12.6143 c 0,0.4111 0.15,0.7662 0.45,1.0652 0.3,0.299 0.656,0.4485 1.068,0.4485 h 2.026 c 0.9,0 1.575,-0.2243 2.025,-0.6728 0.487,-0.4485 0.843,-0.9904 1.068,-1.6258 0.226,-0.6728 0.357,-1.3455 0.394,-2.0183 0.038,-0.7101 0.057,-1.3081 0.057,-1.794 z m 0,-18.3327 c 0,-0.4859 -0.019,-1.0839 -0.057,-1.794 -0.037,-0.7101 -0.168,-1.3829 -0.394,-2.0183 -0.225,-0.6354 -0.581,-1.1773 -1.068,-1.6258 -0.45,-0.4859 -1.125,-0.7288 -2.025,-0.7288 h -2.026 c -0.412,0.0373 -0.768,0.2055 -1.068,0.5045 -0.3,0.299 -0.45,0.6541 -0.45,1.0652 v 12.6143 c 0,0.4111 0.15,0.7662 0.45,1.0652 0.3,0.299 0.656,0.4485 1.068,0.4485 h 2.026 c 0.9,0 1.575,-0.2243 2.025,-0.6728 0.487,-0.4485 0.843,-0.9904 1.068,-1.6258 0.226,-0.6728 0.357,-1.3455 0.394,-2.0183 0.038,-0.7101 0.057,-1.3081 0.057,-1.794 z m 2.418,5.5503 c 0.038,-0.0748 0.057,-0.1121 0.057,-0.1121 0,-0.0374 0.018,-0.0935 0.056,-0.1682 0.037,-0.0748 0.056,-0.1308 0.056,-0.1682 0,-0.0748 0.019,-0.1495 0.056,-0.2243 0.038,-0.0747 0.057,-0.1308 0.057,-0.1682 0,-0.0373 0.018,-0.0934 0.056,-0.1682 0,-0.0747 0,-0.1308 0,-0.1681 0.037,-0.0748 0.056,-0.1495 0.056,-0.2243 0.038,-0.1495 0.056,-0.299 0.056,-0.4485 0.038,-0.1495 0.075,-0.299 0.113,-0.4485 0.037,-0.1121 0.056,-0.2803 0.056,-0.5046 0,-0.0747 0,-0.1495 0,-0.2242 0.038,-0.0748 0.056,-0.1495 0.056,-0.2243 v -1.9622 c 0,-0.2243 -0.018,-0.3924 -0.056,-0.5046 v -0.2242 c 0,-0.0748 -0.019,-0.1122 -0.056,-0.1122 0,-0.0373 0,-0.0934 0,-0.1681 0,-0.1869 -0.038,-0.4672 -0.113,-0.841 -0.037,-0.0747 -0.056,-0.1495 -0.056,-0.2242 0,-0.0748 -0.019,-0.1495 -0.056,-0.2243 0,-0.0374 -0.019,-0.0561 -0.056,-0.0561 0,-0.0373 0,-0.0747 0,-0.1121 0,-0.0374 -0.019,-0.056 -0.057,-0.056 0,-0.0374 0,-0.0748 0,-0.1122 -0.037,-0.0747 -0.056,-0.1308 -0.056,-0.1682 0,-0.0373 -0.019,-0.0934 -0.056,-0.1682 -0.038,-0.0747 -0.056,-0.1308 -0.056,-0.1681 0,-0.0374 -0.019,-0.0935 -0.057,-0.1682 -0.037,-0.0374 -0.056,-0.0748 -0.056,-0.1122 0,-0.0373 -0.019,-0.0747 -0.056,-0.1121 -0.075,-0.1495 -0.113,-0.2242 -0.113,-0.2242 -0.037,-0.0374 -0.056,-0.0561 -0.056,-0.0561 0,-0.0374 -0.019,-0.0748 -0.056,-0.1121 -0.038,-0.0374 -0.056,-0.0748 -0.056,-0.1122 -0.038,-0.0373 -0.057,-0.0747 -0.057,-0.1121 h -0.056 c 0,0 0.019,0.0374 0.056,0.1121 v 0.1122 c 0.038,0.0373 0.057,0.1121 0.057,0.2242 0,0.0374 0,0.0748 0,0.1121 0.037,0 0.056,0.0374 0.056,0.1122 0,0.1121 0.019,0.2055 0.056,0.2803 v 0.2803 c 0,0.0748 0,0.1308 0,0.1682 0.038,0.0374 0.056,0.0934 0.056,0.1682 0,0.3364 0.019,0.598 0.057,0.7849 v 0.897 c 0.037,0.1869 0.056,0.4859 0.056,0.897 v 2.1304 c -0.038,0.0748 -0.056,0.1682 -0.056,0.2803 v 1.2895 c -0.038,0.1495 -0.057,0.299 -0.057,0.4485 0,0.1121 0,0.2242 0,0.3364 0,0.0747 -0.018,0.1308 -0.056,0.1682 0,0.0373 0,0.0934 0,0.1681 v 0.3364 c -0.037,0.0748 -0.056,0.1682 -0.056,0.2803 0,0.0748 -0.019,0.1495 -0.056,0.2243 0,0.0747 -0.019,0.1308 -0.057,0.1682 v 0.1121 l -0.056,0.1121 c 0,0 0.038,-0.0187 0.113,-0.056 v -0.0561 l 0.056,-0.0561 c 0.037,-0.0373 0.056,-0.056 0.056,-0.056 0,-0.0374 0.019,-0.0748 0.056,-0.1121 0.038,-0.0748 0.075,-0.1495 0.113,-0.2243 0.037,-0.1121 0.075,-0.2056 0.112,-0.2803 z"
         fill="#f4ede8"
         id="path148" />
      <path
         d="m 175.509,82.3501 c 0,0.6728 0.057,1.1773 0.169,1.5137 0.15,0.299 0.3,0.5419 0.45,0.7288 0.15,0.1495 0.281,0.299 0.394,0.4485 0.15,0.1495 0.225,0.3925 0.225,0.7289 h -15.301 c -0.225,0 -0.431,-0.0935 -0.619,-0.2804 -0.187,-0.1868 -0.281,-0.3924 -0.281,-0.6167 0,0.2243 -0.094,0.4299 -0.281,0.6167 -0.15,0.1869 -0.356,0.2804 -0.619,0.2804 h -2.925 c 0,-0.3364 0.056,-0.5794 0.169,-0.7289 0.15,-0.1495 0.3,-0.299 0.45,-0.4485 0.15,-0.1869 0.281,-0.4298 0.394,-0.7288 0.15,-0.299 0.225,-0.7662 0.225,-1.4016 V 68.7828 c -0.113,-1.1587 -0.638,-1.9996 -1.576,-2.5229 0.413,-0.2616 0.938,-0.3924 1.576,-0.3924 V 49.8334 c 0,-0.6354 -0.075,-1.1026 -0.225,-1.4016 -0.113,-0.299 -0.244,-0.5233 -0.394,-0.6728 -0.15,-0.1868 -0.3,-0.355 -0.45,-0.5045 -0.113,-0.1495 -0.169,-0.3925 -0.169,-0.7289 h 2.981 c 0.225,0 0.432,0.0935 0.619,0.2804 0.188,0.1495 0.281,0.355 0.281,0.6167 0,-0.5981 0.3,-0.8971 0.9,-0.8971 h 15.245 c 0,0.3364 -0.075,0.5794 -0.225,0.7289 -0.113,0.1495 -0.244,0.3177 -0.394,0.5045 -0.15,0.1495 -0.3,0.3925 -0.45,0.7289 -0.112,0.299 -0.169,0.7848 -0.169,1.4576 v 7.4564 c -1.312,0 -2.325,-0.2429 -3.037,-0.7288 -0.675,-0.5233 -1.182,-1.1026 -1.519,-1.738 -0.413,-0.7101 -0.638,-1.551 -0.675,-2.5228 v -1.738 c 0,-0.4111 -0.15,-0.7662 -0.45,-1.0652 -0.3,-0.299 -0.656,-0.4672 -1.069,-0.5045 h -4.05 c -0.413,0.0373 -0.769,0.2055 -1.069,0.5045 -0.3,0.299 -0.45,0.6541 -0.45,1.0652 v 12.6143 c 0,0.4111 0.15,0.7662 0.45,1.0652 0.3,0.299 0.656,0.4485 1.069,0.4485 h 0.394 c 0.412,0 0.75,-0.1495 1.012,-0.4485 0.3,-0.299 0.45,-0.6541 0.45,-1.0652 v -0.0561 c 0.038,-0.5606 0.188,-1.0465 0.45,-1.4576 0.225,-0.3738 0.563,-0.7102 1.013,-1.0092 0.45,-0.299 1.106,-0.4485 1.969,-0.4485 v 11.6051 c -0.863,0 -1.519,-0.1495 -1.969,-0.4485 -0.45,-0.299 -0.788,-0.6354 -1.013,-1.0091 -0.262,-0.4112 -0.412,-0.897 -0.45,-1.4577 0,-0.4111 -0.15,-0.7662 -0.45,-1.0652 -0.262,-0.299 -0.6,-0.4672 -1.012,-0.5045 h -0.394 c -0.413,0.0373 -0.769,0.2055 -1.069,0.5045 -0.3,0.299 -0.45,0.6541 -0.45,1.0652 v 12.6143 c 0,0.4111 0.15,0.7662 0.45,1.0652 0.3,0.299 0.656,0.4485 1.069,0.4485 h 4.05 c 0.413,0 0.769,-0.1495 1.069,-0.4485 0.3,-0.299 0.45,-0.6541 0.45,-1.0652 v -1.7941 c 0.037,-0.9343 0.262,-1.7566 0.675,-2.4667 0.337,-0.6354 0.844,-1.2147 1.519,-1.738 0.712,-0.5233 1.725,-0.7849 3.037,-0.7849 z M 160.996,63.5128 c 0,-0.1869 -0.019,-0.3924 -0.056,-0.6167 0,-0.2242 0,-0.4485 0,-0.6727 V 60.99 c -0.038,-0.8223 -0.056,-1.6072 -0.056,-2.3547 0,-0.7475 -0.019,-1.4576 -0.057,-2.1304 -0.037,-0.299 -0.056,-0.598 -0.056,-0.897 0,-0.299 -0.019,-0.5793 -0.056,-0.841 0,-0.299 -0.019,-0.5606 -0.056,-0.7848 0,-0.2243 0,-0.4299 0,-0.6167 0,-0.1869 -0.019,-0.3551 -0.057,-0.5046 0,-0.1495 0,-0.2803 0,-0.3924 V 52.188 c -0.037,0 -0.056,0.0187 -0.056,0.0561 v 0.2243 c 0,0.1121 -0.019,0.2429 -0.056,0.3924 0,0.1495 0,0.3177 0,0.5046 0,0.1868 -0.019,0.3924 -0.056,0.6167 0,0.2242 0,0.4858 0,0.7848 -0.038,0.2617 -0.057,0.542 -0.057,0.841 0,0.299 -0.018,0.598 -0.056,0.897 -0.037,0.6728 -0.056,1.3829 -0.056,2.1304 0,0.7475 -0.019,1.5324 -0.056,2.3547 v 1.2334 c 0,0.2242 -0.019,0.4485 -0.057,0.6727 0,0.2243 0,0.4298 0,0.6167 v 5.2139 c 0,0.299 0.019,0.5233 0.057,0.6728 v 1.8501 c 0,0.4111 0,0.8222 0,1.2334 0.037,0.3737 0.056,0.7475 0.056,1.1212 0,0.4111 0,0.7849 0,1.1213 0.037,0.3364 0.056,0.6727 0.056,1.0091 0.038,0.3364 0.056,0.6541 0.056,0.9531 0,0.2616 0.019,0.5419 0.057,0.8409 0,0.2617 0,0.5046 0,0.7289 0.037,0.2242 0.056,0.4298 0.056,0.6167 0,0.1868 0,0.3737 0,0.5606 0.037,0.1495 0.056,0.2616 0.056,0.3364 v 0.2803 c 0,0.0374 0.019,0.0561 0.056,0.0561 v -0.3364 c 0,-0.0748 0,-0.1869 0,-0.3364 0.038,-0.1869 0.057,-0.3738 0.057,-0.5606 0,-0.1869 0,-0.3925 0,-0.6167 0.037,-0.2243 0.056,-0.4672 0.056,-0.7289 0.037,-0.299 0.056,-0.5793 0.056,-0.8409 0,-0.299 0.019,-0.6167 0.056,-0.9531 0,-0.3364 0,-0.6727 0,-1.0091 0.038,-0.3364 0.057,-0.7102 0.057,-1.1213 0,-0.3737 0,-0.7475 0,-1.1212 0.037,-0.4112 0.056,-0.8223 0.056,-1.2334 v -1.2334 c 0,-0.299 0.019,-0.5046 0.056,-0.6167 z"
         fill="#f4ede8"
         id="path150" />
      <path
         d="m 198.139,88.1246 c 0.412,0.0748 0.694,0.2056 0.844,0.3925 0.187,0.1868 0.318,0.3737 0.393,0.5606 0.075,0.2242 0.113,0.4672 0.113,0.7288 -1.2,0 -2.325,-0.1495 -3.375,-0.4485 -1.05,-0.299 -1.988,-0.7849 -2.813,-1.4576 -0.787,-0.6728 -1.425,-1.5511 -1.913,-2.635 -0.45,-1.0839 -0.675,-2.4107 -0.675,-3.9805 v -7.6807 c 0,-0.4859 -0.018,-1.0839 -0.056,-1.794 -0.037,-0.7101 -0.169,-1.3829 -0.394,-2.0183 -0.225,-0.6354 -0.581,-1.1773 -1.068,-1.6258 -0.45,-0.4859 -1.125,-0.7288 -2.025,-0.7288 h -2.307 c -0.337,0.0747 -0.637,0.2616 -0.9,0.5606 -0.225,0.2616 -0.337,0.5793 -0.337,0.9531 v 13.3991 c 0,0.6728 0.056,1.1773 0.168,1.5137 0.15,0.299 0.3,0.5419 0.45,0.7288 0.15,0.1495 0.282,0.299 0.394,0.4485 0.15,0.1495 0.225,0.3925 0.225,0.7289 h -2.981 c -0.225,0 -0.432,-0.0935 -0.619,-0.2804 -0.188,-0.1868 -0.281,-0.3924 -0.281,-0.6167 0,0.2243 -0.094,0.4299 -0.282,0.6167 -0.15,0.1869 -0.356,0.2804 -0.618,0.2804 h -2.925 c 0,-0.3364 0.056,-0.5794 0.168,-0.7289 0.15,-0.1495 0.3,-0.299 0.45,-0.4485 0.15,-0.1869 0.282,-0.4298 0.394,-0.7288 0.15,-0.299 0.225,-0.7662 0.225,-1.4016 V 68.7828 c -0.112,-1.1587 -0.637,-1.9996 -1.575,-2.5229 0.413,-0.2616 0.938,-0.3924 1.575,-0.3924 V 49.8334 c 0,-0.6354 -0.075,-1.1026 -0.225,-1.4016 -0.112,-0.299 -0.244,-0.5233 -0.394,-0.6728 -0.15,-0.1868 -0.3,-0.355 -0.45,-0.5045 -0.112,-0.1495 -0.168,-0.3925 -0.168,-0.7289 h 2.981 c 0.225,0 0.431,0.0935 0.619,0.2804 0.187,0.1495 0.281,0.355 0.281,0.6167 0,-0.5981 0.3,-0.8971 0.9,-0.8971 h 5.288 c 1.2,0 2.325,0.2243 3.375,0.6728 1.05,0.4485 1.969,1.0652 2.756,1.8501 0.788,0.7475 1.407,1.6445 1.857,2.691 0.45,1.0465 0.693,2.1491 0.731,3.3078 v 3.6441 c 0,1.5698 -0.375,3.0087 -1.125,4.3169 -0.75,1.3081 -1.763,2.3546 -3.038,3.1395 1.275,0.7475 2.288,1.794 3.038,3.1395 0.75,1.3082 1.125,2.7471 1.125,4.3169 v 7.4564 c 0,0.7849 0,1.5885 0,2.4108 0.037,0.7848 0.131,1.5137 0.281,2.1864 0.15,0.6354 0.375,1.1774 0.675,1.6259 0.3,0.4485 0.713,0.7288 1.238,0.8409 z M 193.02,57.7383 c -0.038,0.0748 -0.056,0.1682 -0.056,0.2803 v 1.2895 c -0.038,0.1495 -0.057,0.299 -0.057,0.4485 0,0.1121 0,0.2242 0,0.3364 0,0.0747 -0.018,0.1308 -0.056,0.1682 0,0.0373 0,0.0934 0,0.1681 v 0.3364 c -0.037,0.0748 -0.056,0.1682 -0.056,0.2803 0,0.0748 -0.019,0.1495 -0.056,0.2243 0,0.0747 -0.019,0.1308 -0.057,0.1682 v 0.1121 l -0.056,0.1121 c 0,0 0.038,-0.0187 0.113,-0.056 v -0.0561 l 0.056,-0.0561 c 0.037,-0.0373 0.056,-0.056 0.056,-0.056 0,-0.0374 0.019,-0.0748 0.056,-0.1121 0.038,-0.0748 0.075,-0.1495 0.113,-0.2243 0.037,-0.1121 0.075,-0.2056 0.112,-0.2803 0.038,-0.0748 0.057,-0.1121 0.057,-0.1121 0,-0.0374 0.018,-0.0935 0.056,-0.1682 0.037,-0.0748 0.056,-0.1308 0.056,-0.1682 0,-0.0748 0.019,-0.1495 0.056,-0.2243 0.038,-0.0747 0.057,-0.1308 0.057,-0.1682 0,-0.0373 0.018,-0.0934 0.056,-0.1682 0,-0.0747 0,-0.1308 0,-0.1681 0.037,-0.0748 0.056,-0.1495 0.056,-0.2243 0.038,-0.1495 0.056,-0.299 0.056,-0.4485 0.038,-0.1495 0.075,-0.299 0.113,-0.4485 0.037,-0.1121 0.056,-0.2803 0.056,-0.5046 0,-0.0747 0,-0.1495 0,-0.2242 0.038,-0.0748 0.056,-0.1495 0.056,-0.2243 v -1.9622 c 0,-0.2243 -0.018,-0.3924 -0.056,-0.5046 v -0.2242 c 0,-0.0748 -0.019,-0.1122 -0.056,-0.1122 0,-0.0373 0,-0.0934 0,-0.1681 0,-0.1869 -0.038,-0.4672 -0.113,-0.841 -0.037,-0.0747 -0.056,-0.1495 -0.056,-0.2242 0,-0.0748 -0.019,-0.1495 -0.056,-0.2243 0,-0.0374 -0.019,-0.0561 -0.056,-0.0561 0,-0.0373 0,-0.0747 0,-0.1121 0,-0.0374 -0.019,-0.056 -0.057,-0.056 0,-0.0374 0,-0.0748 0,-0.1122 -0.037,-0.0747 -0.056,-0.1308 -0.056,-0.1682 0,-0.0373 -0.019,-0.0934 -0.056,-0.1682 -0.038,-0.0747 -0.056,-0.1308 -0.056,-0.1681 0,-0.0374 -0.019,-0.0935 -0.057,-0.1682 -0.037,-0.0374 -0.056,-0.0748 -0.056,-0.1122 0,-0.0373 -0.019,-0.0747 -0.056,-0.1121 -0.075,-0.1495 -0.113,-0.2242 -0.113,-0.2242 -0.037,-0.0374 -0.056,-0.0561 -0.056,-0.0561 0,-0.0374 -0.019,-0.0748 -0.056,-0.1121 -0.038,-0.0374 -0.056,-0.0748 -0.056,-0.1122 -0.038,-0.0373 -0.057,-0.0747 -0.057,-0.1121 h -0.056 c 0,0 0.019,0.0374 0.056,0.1121 v 0.1122 c 0.038,0.0373 0.057,0.1121 0.057,0.2242 0,0.0374 0,0.0748 0,0.1121 0.037,0 0.056,0.0374 0.056,0.1122 0,0.1121 0.019,0.2055 0.056,0.2803 v 0.2803 c 0,0.0748 0,0.1308 0,0.1682 0.038,0.0374 0.056,0.0934 0.056,0.1682 0,0.3364 0.019,0.598 0.057,0.7849 v 0.897 c 0.037,0.1869 0.056,0.4859 0.056,0.897 z m -11.588,5.7745 c 0,-0.1869 -0.019,-0.3924 -0.057,-0.6167 0,-0.2242 0,-0.4485 0,-0.6727 V 60.99 c -0.037,-0.8223 -0.056,-1.6072 -0.056,-2.3547 0,-0.7475 -0.019,-1.4576 -0.056,-2.1304 -0.038,-0.299 -0.056,-0.598 -0.056,-0.897 0,-0.299 -0.019,-0.5793 -0.057,-0.841 0,-0.299 -0.018,-0.5606 -0.056,-0.7848 0,-0.2243 0,-0.4299 0,-0.6167 0,-0.1869 -0.019,-0.3551 -0.056,-0.5046 0,-0.1495 0,-0.2803 0,-0.3924 V 52.188 c -0.038,0 -0.056,0.0187 -0.056,0.0561 v 0.2243 c 0,0.1121 -0.019,0.2429 -0.057,0.3924 0,0.1495 0,0.3177 0,0.5046 0,0.1868 -0.018,0.3924 -0.056,0.6167 0,0.2242 0,0.4858 0,0.7848 -0.037,0.2617 -0.056,0.542 -0.056,0.841 0,0.299 -0.019,0.598 -0.056,0.897 -0.038,0.6728 -0.057,1.3829 -0.057,2.1304 0,0.7475 -0.018,1.5324 -0.056,2.3547 v 1.2334 c 0,0.2242 -0.019,0.4485 -0.056,0.6727 0,0.2243 0,0.4298 0,0.6167 v 5.2139 c 0,0.299 0.019,0.5233 0.056,0.6728 v 1.8501 c 0,0.4111 0,0.8222 0,1.2334 0.038,0.3737 0.056,0.7475 0.056,1.1212 0,0.4111 0,0.7849 0,1.1213 0.038,0.3364 0.057,0.6727 0.057,1.0091 0.037,0.3364 0.056,0.6541 0.056,0.9531 0,0.2616 0.019,0.5419 0.056,0.8409 0,0.2617 0,0.5046 0,0.7289 0.038,0.2242 0.056,0.4298 0.056,0.6167 0,0.1868 0,0.3737 0,0.5606 0.038,0.1495 0.057,0.2616 0.057,0.3364 v 0.2803 c 0,0.0374 0.018,0.0561 0.056,0.0561 v -0.3364 c 0,-0.0748 0,-0.1869 0,-0.3364 0.037,-0.1869 0.056,-0.3738 0.056,-0.5606 0,-0.1869 0,-0.3925 0,-0.6167 0.038,-0.2243 0.056,-0.4672 0.056,-0.7289 0.038,-0.299 0.057,-0.5793 0.057,-0.8409 0,-0.299 0.018,-0.6167 0.056,-0.9531 0,-0.3364 0,-0.6727 0,-1.0091 0.037,-0.3364 0.056,-0.7102 0.056,-1.1213 0,-0.3737 0,-0.7475 0,-1.1212 0.038,-0.4112 0.056,-0.8223 0.056,-1.2334 v -1.2334 c 0,-0.299 0.019,-0.5046 0.057,-0.6167 z m 9.281,-8.2413 c 0,-0.4859 -0.018,-1.0839 -0.056,-1.794 -0.037,-0.7101 -0.169,-1.3829 -0.394,-2.0183 -0.225,-0.6354 -0.581,-1.1773 -1.068,-1.6258 -0.45,-0.4859 -1.125,-0.7288 -2.025,-0.7288 h -2.026 c -0.412,0.0373 -0.768,0.2055 -1.068,0.5045 -0.3,0.299 -0.45,0.6541 -0.45,1.0652 v 12.6143 c 0,0.4111 0.15,0.7662 0.45,1.0652 0.3,0.299 0.656,0.4485 1.068,0.4485 h 2.026 c 0.9,0 1.575,-0.2243 2.025,-0.6728 0.487,-0.4485 0.843,-0.9904 1.068,-1.6258 0.225,-0.6728 0.357,-1.3455 0.394,-2.0183 0.038,-0.7101 0.056,-1.3081 0.056,-1.794 z m 3.769,30.7227 c 0,0 -0.018,-0.0187 -0.056,-0.0561 l -0.056,-0.056 c -0.038,-0.0748 -0.075,-0.1495 -0.113,-0.2243 0,-0.0747 -0.037,-0.1495 -0.112,-0.2242 -0.038,-0.1122 -0.075,-0.2243 -0.113,-0.3364 -0.037,-0.1495 -0.075,-0.3177 -0.112,-0.5046 -0.075,-0.3737 -0.113,-0.7288 -0.113,-1.0652 -0.037,-0.1869 -0.056,-0.3737 -0.056,-0.5606 0,-0.2243 0,-0.4672 0,-0.7288 v -2.9714 c 0,-0.2616 0,-0.5232 0,-0.7849 0,-0.2616 0.019,-0.5419 0.056,-0.8409 0,-0.2617 0,-0.5233 0,-0.7849 0,-0.2616 -0.018,-0.5233 -0.056,-0.7849 v -0.7849 c 0,-0.3737 -0.019,-0.6354 -0.056,-0.7849 0,-0.2616 -0.019,-0.5045 -0.056,-0.7288 0,-0.2616 -0.019,-0.5046 -0.057,-0.7288 -0.075,-0.5233 -0.15,-0.9718 -0.225,-1.3455 -0.037,-0.1869 -0.075,-0.3551 -0.112,-0.5046 -0.038,-0.1869 -0.094,-0.3738 -0.169,-0.5606 -0.075,-0.1869 -0.131,-0.3364 -0.169,-0.4485 -0.037,-0.1122 -0.093,-0.2243 -0.168,-0.3364 -0.075,-0.1122 -0.132,-0.2056 -0.169,-0.2803 -0.038,-0.0748 -0.075,-0.1495 -0.113,-0.2243 -0.037,0 -0.075,-0.0187 -0.112,-0.0561 -0.038,0 -0.056,-0.0186 -0.056,-0.056 l 0.056,0.056 c 0,0.0374 0.019,0.0748 0.056,0.1122 0,0.0373 0,0.0747 0,0.1121 0.038,0 0.056,0.0374 0.056,0.1121 0.038,0.0374 0.057,0.0748 0.057,0.1121 0,0.0374 0.018,0.0935 0.056,0.1682 0.037,0.1495 0.094,0.4112 0.169,0.7849 0.037,0.1869 0.056,0.3738 0.056,0.5607 0.037,0.1868 0.075,0.3737 0.112,0.5606 0,0.1869 0,0.3924 0,0.6167 0.038,0.1869 0.057,0.4111 0.057,0.6727 v 6.9519 c 0,0.1495 0,0.2803 0,0.3924 0.037,0.1122 0.056,0.243 0.056,0.3925 0,0.2616 0,0.5232 0,0.7849 0.037,0.2242 0.075,0.4485 0.112,0.6727 0.038,0.2243 0.057,0.4485 0.057,0.6728 0.037,0.2242 0.075,0.4298 0.112,0.6167 0.075,0.2242 0.131,0.4298 0.169,0.6167 0.037,0.1495 0.094,0.3177 0.169,0.5046 0.075,0.1868 0.131,0.3363 0.168,0.4485 0.038,0.1121 0.094,0.2242 0.169,0.3363 l 0.113,0.1122 c 0.037,0.0373 0.056,0.0747 0.056,0.1121 0,0 0.019,0.0187 0.056,0.0561 l 0.225,0.2242 z"
         fill="#f4ede8"
         id="path152" />
      <ellipse
         cy="0"
         cx="0"
         rx="3.01354"
         ry="3.0033901"
         transform="matrix(1,0,0,-1,210.947,67.0288)"
         fill="#999591"
         id="ellipse154" />
      <ellipse
         cy="0"
         cx="0"
         rx="3.01354"
         ry="3.0033901"
         transform="matrix(1,0,0,-1,19.0857,67.0288)"
         fill="#999591"
         id="ellipse156" />
    </g>
  </g>
</svg>
